<svg xmlns="http://www.w3.org/2000/svg" viewBox="0 0 61.1 55.83"><defs><style>.cls-1{fill:#bee5df;}.cls-2,.cls-5{fill:#fff;}.cls-3{fill:#b5bd00;}.cls-3,.cls-4,.cls-5{stroke:#115e67;}.cls-3,.cls-6{stroke-linejoin:round;}.cls-3,.cls-4,.cls-5,.cls-6,.cls-7{stroke-width:2px;}.cls-4,.cls-6,.cls-7{fill:none;}.cls-4,.cls-5,.cls-7{stroke-miterlimit:10;}.cls-6{stroke:#2a5082;}.cls-7{stroke:#fff;}</style></defs><g id="Layer_2" data-name="Layer 2"><g id="icons"><circle class="cls-1" cx="22" cy="22" r="22"/><path class="cls-2" d="M12,15.83H56a2,2,0,0,1,2,2v32a0,0,0,0,1,0,0H10a0,0,0,0,1,0,0v-32A2,2,0,0,1,12,15.83Z"/><path class="cls-3" d="M36,48.83l-1,1H30l-1-1H5a4,4,0,0,0,4,4H44v-4Z"/><path class="cls-4" d="M58,25.83v-8a2,2,0,0,0-2-2H12a2,2,0,0,0-2,2v31"/><path class="cls-4" d="M44,48.83H36l-1,1H30l-1-1H5a4,4,0,0,0,4,4H44"/><rect class="cls-5" x="46.9" y="29.83" width="13.19" height="25" rx="1.39"/><line class="cls-6" x1="52.46" y1="52.74" x2="54.54" y2="52.74"/><line class="cls-7" x1="26" y1="5.83" x2="26" y2="7.83"/><line class="cls-7" x1="26" y1="9.83" x2="26" y2="11.83"/><line class="cls-7" x1="27" y1="8.83" x2="29" y2="8.83"/><line class="cls-7" x1="23" y1="8.83" x2="25" y2="8.83"/></g></g></svg>