<svg xmlns="http://www.w3.org/2000/svg" viewBox="0 0 61 60"><defs><style>.cls-1{fill:#bee5df;}.cls-2,.cls-6{fill:#fff;}.cls-3{fill:#b5bd00;}.cls-3,.cls-4,.cls-5,.cls-6,.cls-8{stroke:#115e67;}.cls-3,.cls-4,.cls-6{stroke-linejoin:round;}.cls-3,.cls-4,.cls-5,.cls-6,.cls-7,.cls-8{stroke-width:2px;}.cls-4,.cls-5,.cls-7,.cls-8{fill:none;}.cls-5,.cls-7,.cls-8{stroke-miterlimit:10;}.cls-7{stroke:#fff;}.cls-8{stroke-linecap:round;}</style></defs><g id="Layer_2" data-name="Layer 2"><g id="icons"><circle class="cls-1" cx="36" cy="35" r="25"/><rect class="cls-2" x="1" y="1" width="40" height="55" rx="1"/><path class="cls-3" d="M40,1H2A1,1,0,0,0,1,2V7H41V2A1,1,0,0,0,40,1Z"/><path class="cls-4" d="M41,9V2a1,1,0,0,0-1-1H2A1,1,0,0,0,1,2V55a1,1,0,0,0,1,1H40a1,1,0,0,0,1-1V43"/><line class="cls-5" x1="3" y1="7" x2="39" y2="7"/><line class="cls-5" x1="4" y1="4" x2="6" y2="4"/><line class="cls-5" x1="8" y1="4" x2="10" y2="4"/><path class="cls-6" d="M20,12H54a3,3,0,0,1,3,3V37a3,3,0,0,1-3,3H35l-5,7-5-7H20a3,3,0,0,1-3-3V15A3,3,0,0,1,20,12Z"/><line class="cls-7" x1="48" y1="46" x2="48" y2="52"/><line class="cls-7" x1="45" y1="49" x2="51" y2="49"/><polyline class="cls-5" points="13 24 6 24 6 12 13 12"/><line class="cls-5" x1="5" y1="29" x2="13" y2="29"/><line class="cls-5" x1="5" y1="33" x2="13" y2="33"/><line class="cls-5" x1="5" y1="37" x2="13" y2="37"/><line class="cls-5" x1="5" y1="41" x2="13" y2="41"/><line class="cls-5" x1="5" y1="45" x2="19" y2="45"/><path class="cls-3" d="M44,24H40V23a9.76,9.76,0,0,0,.55-2.72c0-1.56-.39-2.27-1.21-2.81S37,16.8,37,17.64v.67c0,1.88-1.3,3.08-2.47,4,0,0-1.82,1.67-2.49,1.67H28v8h3c1.59,0,1.76,2,4,2h8a2,2,0,0,0,1.84-1.6L46,26.62C46.22,25.18,45.53,24,44,24Z"/><path class="cls-8" d="M36.89,29.4c1.53-1,3.11-2.61,3.11-4.4V23a9.76,9.76,0,0,0,.55-2.72c0-1.56-.39-2.27-1.21-2.81S37,16.8,37,17.64v.67c0,1.88-1.3,3.08-2.47,4,0,0-1.82,1.67-2.49,1.67H28v8h3c1.59,0,1.76,2,4,2h8a2,2,0,0,0,1.84-1.6L46,26.62c.25-1.44-.44-2.62-2-2.62H43"/></g></g></svg>