<svg xmlns="http://www.w3.org/2000/svg" viewBox="0 0 58.32 64"><g id="Layer_2" data-name="Layer 2"><g id="icons"><circle cx="31" cy="32" r="23" fill="#bee5df"/><line x1="31" x2="31" y2="14" fill="none" stroke="#115e67" stroke-linejoin="round" stroke-width="2"/><line x1="40" y1="15" x2="34" y2="25" fill="none" stroke="#115e67" stroke-linejoin="round" stroke-width="2"/><line x1="43.89" y1="24.54" x2="41.04" y2="26.19" fill="none" stroke="#115e67" stroke-linejoin="round" stroke-width="2"/><line x1="57.82" y1="16.5" x2="46.47" y2="23.05" fill="none" stroke="#115e67" stroke-linejoin="round" stroke-width="2"/><line x1="52" y1="32" x2="39" y2="32" fill="none" stroke="#115e67" stroke-linejoin="round" stroke-width="2"/><line x1="57.82" y1="47.5" x2="41.04" y2="37.81" fill="none" stroke="#115e67" stroke-linejoin="round" stroke-width="2"/><line x1="39.61" y1="47.91" x2="33.71" y2="37.69" fill="none" stroke="#115e67" stroke-linejoin="round" stroke-width="2"/><line x1="31" y1="64" x2="31" y2="52" fill="none" stroke="#115e67" stroke-linejoin="round" stroke-width="2"/><line x1="19.44" y1="51.38" x2="25.34" y2="41.16" fill="none" stroke="#115e67" stroke-linejoin="round" stroke-width="2"/><line x1="4.12" y1="47.5" x2="20.9" y2="37.81" fill="none" stroke="#115e67" stroke-linejoin="round" stroke-width="2"/><line y1="32" x2="13" y2="32" fill="none" stroke="#115e67" stroke-linejoin="round" stroke-width="2"/><line x1="13.82" y1="22.12" x2="24.04" y2="28.02" fill="none" stroke="#115e67" stroke-linejoin="round" stroke-width="2"/><line x1="15.47" y1="5.15" x2="25.16" y2="21.93" fill="none" stroke="#115e67" stroke-linejoin="round" stroke-width="2"/><line x1="31" y1="16" x2="31" y2="18" fill="none" stroke="#115e67" stroke-linejoin="round" stroke-width="2"/><line x1="15" y1="32" x2="18" y2="32" fill="none" stroke="#115e67" stroke-linejoin="round" stroke-width="2"/><line x1="31" y1="48" x2="31" y2="50" fill="none" stroke="#115e67" stroke-linejoin="round" stroke-width="2"/><line x1="31" y1="44" x2="31" y2="46" fill="none" stroke="#115e67" stroke-linejoin="round" stroke-width="2"/><line x1="27.83" y1="36.63" x2="26.76" y2="38.57" fill="none" stroke="#115e67" stroke-linejoin="round" stroke-width="2"/><line x1="8" y1="15" x2="11" y2="18" fill="none" stroke="#b5bd00" stroke-miterlimit="10" stroke-width="2"/><line x1="1" y1="8" x2="4" y2="11" fill="none" stroke="#b5bd00" stroke-miterlimit="10" stroke-width="2"/><line x1="4" y1="15" x2="1" y2="18" fill="none" stroke="#b5bd00" stroke-miterlimit="10" stroke-width="2"/><line x1="11" y1="8" x2="8" y2="11" fill="none" stroke="#b5bd00" stroke-miterlimit="10" stroke-width="2"/><line x1="45" y1="52" x2="45" y2="54" fill="none" stroke="#b5bd00" stroke-miterlimit="10" stroke-width="2"/><line x1="45" y1="56" x2="45" y2="58" fill="none" stroke="#b5bd00" stroke-miterlimit="10" stroke-width="2"/><line x1="44" y1="55" x2="42" y2="55" fill="none" stroke="#b5bd00" stroke-miterlimit="10" stroke-width="2"/><line x1="48" y1="55" x2="46" y2="55" fill="none" stroke="#b5bd00" stroke-miterlimit="10" stroke-width="2"/><line x1="46" y1="5" x2="46" y2="8" fill="none" stroke="#b5bd00" stroke-miterlimit="10" stroke-width="2"/><line x1="46" y1="12" x2="46" y2="15" fill="none" stroke="#b5bd00" stroke-miterlimit="10" stroke-width="2"/><line x1="44" y1="10" x2="41" y2="10" fill="none" stroke="#b5bd00" stroke-miterlimit="10" stroke-width="2"/><line x1="51" y1="10" x2="48" y2="10" fill="none" stroke="#b5bd00" stroke-miterlimit="10" stroke-width="2"/></g></g></svg>