<svg xmlns="http://www.w3.org/2000/svg" viewBox="0 0 64 57.01"><g id="Layer_2" data-name="Layer 2"><g id="icons"><circle cx="22.5" cy="22.5" r="22.5" fill="#bee5df"/><path d="M10,34V53a3,3,0,0,0,3,3H59a3,3,0,0,0,3-3V34Z" fill="#fff"/><path d="M60,18H12a3,3,0,0,0-3,3V31.55C9,35.46,15.9,38,20,38h2V36h6v2H44V36h6v2h2c4.1,0,11-2.54,11-6.45V21A3,3,0,0,0,60,18Z" fill="#b5bd00"/><rect x="22" y="36" width="6" height="7" fill="#fff" stroke="#115e67" stroke-linecap="round" stroke-linejoin="round" stroke-width="2"/><path d="M62,34V53a3,3,0,0,1-3,3H13a3,3,0,0,1-3-3V34" fill="none" stroke="#115e67" stroke-linecap="round" stroke-linejoin="round" stroke-width="2"/><rect x="44" y="36" width="6" height="7" transform="translate(94 79) rotate(180)" fill="#fff" stroke="#115e67" stroke-linecap="round" stroke-linejoin="round" stroke-width="2"/><path d="M45,18V14a2,2,0,0,0-2-2H29a2,2,0,0,0-2,2v4" fill="none" stroke="#115e67" stroke-linecap="round" stroke-linejoin="round" stroke-width="2"/><line x1="28" y1="38" x2="44" y2="38" fill="none" stroke="#115e67" stroke-linecap="round" stroke-linejoin="round" stroke-width="2"/><path d="M50,38h2c4.1,0,11-2.54,11-6.45V21a3,3,0,0,0-3-3H12a3,3,0,0,0-3,3V31.55C9,35.46,15.9,38,20,38h2" fill="none" stroke="#115e67" stroke-linecap="round" stroke-linejoin="round" stroke-width="2"/><line x1="14" y1="7" x2="14" y2="13" fill="none" stroke="#fff" stroke-miterlimit="10" stroke-width="2"/><line x1="11" y1="10" x2="17" y2="10" fill="none" stroke="#fff" stroke-miterlimit="10" stroke-width="2"/><line x1="24" y1="2" x2="24" y2="8" fill="none" stroke="#fff" stroke-miterlimit="10" stroke-width="2"/><line x1="21" y1="5" x2="27" y2="5" fill="none" stroke="#fff" stroke-miterlimit="10" stroke-width="2"/></g></g></svg>