<svg xmlns="http://www.w3.org/2000/svg" viewBox="0 0 61 59"><defs><style>.cls-1{fill:#bee5df;}.cls-2{fill:#fff;}.cls-3{fill:#b5bd00;}.cls-4,.cls-5,.cls-6{fill:none;stroke:#115e67;stroke-width:2px;}.cls-4{stroke-linejoin:round;}.cls-5,.cls-6{stroke-miterlimit:10;}.cls-6{stroke-linecap:round;}</style></defs><g id="Layer_2" data-name="Layer 2"><g id="icons"><circle class="cls-1" cx="22" cy="22" r="22"/><path class="cls-2" d="M52,6H25a2,2,0,0,0-2,2V56a2,2,0,0,0,2,2H58a2,2,0,0,0,2-2V14Z"/><polygon class="cls-3" points="52 6 51 6 51 15 60 15 60 14 52 6"/><path class="cls-4" d="M23,18V8a2,2,0,0,1,2-2H52l8,8V56a2,2,0,0,1-2,2H25a2,2,0,0,1-2-2V53"/><polyline class="cls-4" points="57 15 51 15 51 9"/><rect class="cls-2" x="9" y="21" width="24" height="30" transform="translate(42 72) rotate(180)"/><rect class="cls-3" x="9" y="21" width="24" height="9" transform="translate(42 51) rotate(180)"/><rect class="cls-5" x="9" y="21" width="24" height="30" transform="translate(42 72) rotate(180)"/><line class="cls-5" x1="33" y1="30" x2="9" y2="30"/><line class="cls-5" x1="33" y1="37" x2="9" y2="37"/><line class="cls-5" x1="33" y1="44" x2="17" y2="44"/><line class="cls-5" x1="25" y1="51" x2="25" y2="30"/><line class="cls-5" x1="17" y1="51" x2="17" y2="30"/><circle class="cls-6" cx="41.5" cy="32.5" r="3.5"/><path class="cls-6" d="M52.5,45h0A3.5,3.5,0,0,1,49,41.5h0A3.5,3.5,0,0,1,52.5,38h0A3.5,3.5,0,0,1,56,41.5h0A3.5,3.5,0,0,1,52.5,45Z"/><line class="cls-6" x1="40" y1="45" x2="54" y2="29"/></g></g></svg>