<svg xmlns="http://www.w3.org/2000/svg" viewBox="0 0 60 58"><g id="Layer_2" data-name="Layer 2"><g id="icons"><circle cx="27" cy="28" r="27" fill="#bee5df"/><polygon points="47 27 47 1 35 1 35 13 22 13 22 55 59 55 59 27 47 27" fill="#fff"/><line x1="35" y1="55" x2="32" y2="55" fill="none" stroke="#2a5082" stroke-linecap="round" stroke-linejoin="round" stroke-width="2"/><polyline points="22 30 22 13 35 13" fill="none" stroke="#115e67" stroke-linecap="round" stroke-linejoin="round" stroke-width="2"/><rect x="35" y="1" width="12" height="54" fill="none" stroke="#115e67" stroke-linecap="round" stroke-linejoin="round" stroke-width="2"/><polyline points="47 27 59 27 59 55 47 55" fill="none" stroke="#115e67" stroke-linecap="round" stroke-linejoin="round" stroke-width="2"/><path d="M28,47.7c0-1.52-4.41-3.7-8-3.7s-8,2.18-8,3.7v6.6c0,1.52,4.4,3.7,8,3.7s8-2.18,8-3.7Z" fill="#b5bd00"/><path d="M28,54V47.7c0-1.52-4.41-3.7-8-3.7s-8,2.18-8,3.7V54" fill="none" stroke="#115e67" stroke-linecap="round" stroke-miterlimit="10" stroke-width="2"/><path d="M20,34a3.91,3.91,0,0,0-4,3.6v2.8A3.91,3.91,0,0,0,20,44a3.91,3.91,0,0,0,4-3.6V37.6A3.91,3.91,0,0,0,20,34Z" fill="#fff" stroke="#115e67" stroke-miterlimit="10" stroke-width="2"/><line x1="10" y1="22" x2="10" y2="28" fill="none" stroke="#fff" stroke-miterlimit="10" stroke-width="2"/><line x1="7" y1="25" x2="13" y2="25" fill="none" stroke="#fff" stroke-miterlimit="10" stroke-width="2"/><line x1="3" y1="11" x2="3" y2="17" fill="none" stroke="#bcc0c4" stroke-miterlimit="10" stroke-width="2"/><line y1="14" x2="6" y2="14" fill="none" stroke="#bcc0c4" stroke-miterlimit="10" stroke-width="2"/><line x1="16" y1="7" x2="16" y2="13" fill="none" stroke="#fff" stroke-miterlimit="10" stroke-width="2"/><line x1="13" y1="10" x2="19" y2="10" fill="none" stroke="#fff" stroke-miterlimit="10" stroke-width="2"/></g></g></svg>