<svg xmlns="http://www.w3.org/2000/svg" viewBox="0 0 66 71.99"><defs><style>.cls-1{fill:#bee5df;}.cls-2,.cls-5{fill:#fff;}.cls-3{fill:#b5bd00;}.cls-3,.cls-4,.cls-5{stroke:#115e67;stroke-linejoin:round;}.cls-3,.cls-5{stroke-linecap:round;}.cls-3,.cls-4,.cls-5,.cls-6{stroke-width:2px;}.cls-4,.cls-6{fill:none;}.cls-6{stroke:#fff;stroke-miterlimit:10;}</style></defs><g id="Layer_2" data-name="Layer 2"><g id="icons"><circle class="cls-1" cx="30.46" cy="30.46" r="30.46"/><path class="cls-2" d="M51.5,28.41c-2.69,0-4.48-2.19-4.48-4.89V21.89C47,19.19,48.81,17,51.5,17S56,19.19,56,21.89v1.63C56,26.22,54.19,28.41,51.5,28.41Z"/><path class="cls-3" d="M24,48c4.41,0,5-5,5-5H20l-4.1-5.74A3,3,0,0,0,13.46,36H11c-2.11,0-3.39,1.83-4,4,0,0-2.44,11.16-3,15s2,5,4,5h9l4.49,11,5.56,0L22.73,56.6a4,4,0,0,0-3.41-2.9L13,53l1.38-8L17,48Z"/><path class="cls-4" d="M62,44V37.41c0-2.65-4.1-4.21-7.67-4.81"/><path class="cls-4" d="M53.43,28A4.73,4.73,0,0,0,56,23.56V22c0-2.73-1.79-5-4.5-5S47,19.27,47,22v2"/><path class="cls-3" d="M16.5,33A4.47,4.47,0,0,1,12,28.29V26.71a4.49,4.49,0,1,1,9,0v1.58A4.47,4.47,0,0,1,16.5,33Z"/><path class="cls-4" d="M21.49,71,17,60H8c-2,0-4.56-1.16-4-5S7,40,7,40c.61-2.17,1.89-4,4-4h2.46a3,3,0,0,1,2.44,1.26L20,43h9s-.59,5-5,5H17l-4.8-5.43"/><path class="cls-4" d="M14.38,45,13,53l6.32.7a4,4,0,0,1,3.41,2.9L27.05,71"/><line class="cls-4" x1="17" y1="48" x2="66" y2="48"/><polygon class="cls-5" points="48.88 28 27.38 28 33.63 43 54.88 43 48.88 28"/><line class="cls-4" x1="62" y1="71" x2="62" y2="48"/><line class="cls-6" x1="23" y1="8" x2="23" y2="14"/><line class="cls-6" x1="20" y1="11" x2="26" y2="11"/><line class="cls-6" x1="37.94" y1="15.9" x2="37.94" y2="21.9"/><line class="cls-6" x1="34.94" y1="18.9" x2="40.94" y2="18.9"/></g></g></svg>