<svg xmlns="http://www.w3.org/2000/svg" viewBox="0 0 59 57"><defs><style>.cls-1{fill:#bee5df;}.cls-2,.cls-3{fill:#fff;}.cls-2,.cls-4,.cls-5,.cls-7{stroke:#115e67;}.cls-2,.cls-5,.cls-6,.cls-7,.cls-8{stroke-miterlimit:10;}.cls-2,.cls-4,.cls-5,.cls-6,.cls-7,.cls-8{stroke-width:2px;}.cls-4{fill:#b5bd00;stroke-linejoin:round;}.cls-5,.cls-6,.cls-7,.cls-8{fill:none;}.cls-5{stroke-linecap:round;}.cls-6{stroke:#2a5082;}.cls-8{stroke:#bcc0c4;}</style></defs><g id="Layer_2" data-name="Layer 2"><g id="icons"><circle class="cls-1" cx="33" cy="31" r="26"/><rect class="cls-2" x="22" y="3" width="4" height="10"/><polygon class="cls-3" points="33 7 21 17 21 34 45 34 45 17 33 7"/><rect class="cls-4" x="30" y="24" width="6" height="9"/><path class="cls-3" d="M44.77,31.32l-5.88,2.79-.32.12A2.33,2.33,0,0,0,36.45,33h-6c-1.37,0-3.47-2-5.12-2H19.45c-2.42,0-4.58,2-5.79,3.11L8,39.79,17.19,49c1.5-1.5,3.27-3,4.81-3H34a7.08,7.08,0,0,0,5.06-1.9l9.95-10,2.83-7.07C50.12,25.36,46.18,27.2,44.77,31.32Z"/><path class="cls-5" d="M26,39H36.45C38.11,39,39,37.7,39,36v0c0-1.66-.89-3-2.55-3h-6c-1.37,0-3.47-2-5.12-2H19.45c-2.42,0-4.58,2-5.79,3.11L8,39.79,17.19,49c1.5-1.5,3.27-3,4.81-3H34a7.08,7.08,0,0,0,5.06-1.9l9.95-10,2.83-7.07c-1.72-1.72-5.66.12-7.07,4.24l-5.88,2.79"/><rect class="cls-4" x="6.26" y="37.31" width="8.49" height="18.38" transform="translate(-29.81 21.04) rotate(-45)"/><line class="cls-6" x1="8.55" y1="44.45" x2="6.55" y2="42.45"/><line class="cls-7" x1="45" y1="17" x2="45" y2="31"/><line class="cls-5" x1="21" y1="31" x2="21" y2="17"/><polygon class="cls-4" points="33 3 15 18 18 21 33 9 48 21 51 18 33 3"/><line class="cls-8" x1="13" x2="13" y2="2"/><line class="cls-8" x1="13" y1="4" x2="13" y2="6"/><line class="cls-8" x1="12" y1="3" x2="10" y2="3"/><line class="cls-8" x1="16" y1="3" x2="14" y2="3"/><line class="cls-8" x1="7" y1="9" x2="7" y2="11"/><line class="cls-8" x1="7" y1="13" x2="7" y2="15"/><line class="cls-8" x1="6" y1="12" x2="4" y2="12"/><line class="cls-8" x1="10" y1="12" x2="8" y2="12"/></g></g></svg>