<svg xmlns="http://www.w3.org/2000/svg" viewBox="0 0 64 62.01"><g id="Layer_2" data-name="Layer 2"><g id="icons"><circle cx="33" cy="19.01" r="19" transform="translate(-0.32 0.57) rotate(-0.98)" fill="#bee5df"/><polygon points="48 54.01 48 36.01 30 18.01 12 36.01 12 54.01 48 54.01" fill="#fff"/><path d="M0,5H4A4,4,0,0,1,7.63,3.16,4.17,4.17,0,0,1,11.19,1a4.24,4.24,0,0,1,4.13,4H25" fill="none" stroke="#bcc0c4" stroke-miterlimit="10" stroke-width="2"/><polygon points="15 11.01 15 23.01 21 17.01 21 11.01 15 11.01" fill="#fff" stroke="#115e67" stroke-miterlimit="10" stroke-width="2"/><line x1="12" y1="54.01" x2="12" y2="36.01" fill="none" stroke="#115e67" stroke-miterlimit="10" stroke-width="2"/><polygon points="30 8.01 4 34.01 9 39.01 30 18.01 51 39.01 56 34.01 30 8.01" fill="#b5bd00" stroke="#115e67" stroke-linejoin="round" stroke-width="2"/><rect x="19" y="40.01" width="8" height="14" fill="none" stroke="#115e67" stroke-miterlimit="10" stroke-width="2"/><line x1="6" y1="54.01" x2="30" y2="54.01" fill="none" stroke="#115e67" stroke-linecap="round" stroke-miterlimit="10" stroke-width="2"/><circle cx="36" cy="47.01" r="4" fill="#fff" stroke="#115e67" stroke-linecap="round" stroke-miterlimit="10" stroke-width="2"/><path d="M48,61h0a4,4,0,0,1-4-4h0a4,4,0,0,1,4-4h0a4,4,0,0,1,4,4h0A4,4,0,0,1,48,61Z" fill="#fff" stroke="#115e67" stroke-linecap="round" stroke-miterlimit="10" stroke-width="2"/><line x1="34" y1="61.01" x2="50" y2="43.01" fill="none" stroke="#115e67" stroke-linecap="round" stroke-miterlimit="10" stroke-width="2"/><circle cx="30" cy="28.01" r="3" fill="none" stroke="#115e67" stroke-linecap="round" stroke-miterlimit="10" stroke-width="2"/><path d="M64,12H58.17a3,3,0,0,0-2.69-1.83,2.79,2.79,0,0,0-1.08.18A4.74,4.74,0,0,0,50,7.28,5.18,5.18,0,0,0,45.25,12H40" fill="none" stroke="#bcc0c4" stroke-miterlimit="10" stroke-width="2"/></g></g></svg>