<svg xmlns="http://www.w3.org/2000/svg" viewBox="0 0 59.73 63"><g id="Layer_2" data-name="Layer 2"><g id="icons"><circle cx="24.5" cy="24.5" r="24.5" fill="#bee5df"/><circle cx="29" cy="18" r="8" fill="#b5bd00" stroke="#115e67" stroke-linejoin="round" stroke-width="2"/><circle cx="29" cy="18" r="8" fill="none" stroke="#115e67" stroke-linejoin="round" stroke-width="2"/><path d="M29,24a25.69,25.69,0,0,0-12,3.33C13.55,24.46,9,24,8.3,24.89s1.25,4,2.51,6.14a11.92,11.92,0,0,0-4.17,5,10.3,10.3,0,0,1-4.52.77c-1.76,0-1,4.85.65,7.92,1.47,2.81,11,8.58,12.23,8.8L16,62h3l2.3-5A34.17,34.17,0,0,0,30,58a30.69,30.69,0,0,0,8.93-.94L42,62h3l1.92-9.65A15.13,15.13,0,0,0,52,41C52,31.54,40.71,24,29,24Z" fill="#fff"/><path d="M18.86,29.18c-3.47-4.49-9.74-5.32-10.56-4.29-.59.74,1.25,4,2.51,6.14a11.92,11.92,0,0,0-4.17,5,10.3,10.3,0,0,1-4.52.77c-1.76,0-1,4.85.65,7.92,1.47,2.81,11,8.58,12.23,8.8L16,62h3l2.3-5A34.17,34.17,0,0,0,30,58a30.69,30.69,0,0,0,8.93-.94L42,62h3l1.92-9.65A15.13,15.13,0,0,0,52,41c0-9.46-11.29-17-23-17a25.83,25.83,0,0,0-12,3.3" fill="none" stroke="#115e67" stroke-linejoin="round" stroke-width="2"/><line x1="12" y1="36" x2="14" y2="36" fill="none" stroke="#115e67" stroke-linejoin="round" stroke-width="2"/><path d="M52,40l2.13-1a1.22,1.22,0,0,1,1.89.7h0a1.22,1.22,0,0,0,2.09.53l.89-1" fill="none" stroke="#115e67" stroke-linejoin="round" stroke-width="2"/><circle cx="25" cy="37" r="3" fill="none" stroke="#115e67" stroke-linejoin="round" stroke-width="2"/><path d="M35,48h0a3,3,0,0,1-3-3h0a3,3,0,0,1,3-3h0a3,3,0,0,1,3,3h0A3,3,0,0,1,35,48Z" fill="none" stroke="#115e67" stroke-linejoin="round" stroke-width="2"/><line x1="24" y1="48" x2="36" y2="34" fill="none" stroke="#115e67" stroke-linejoin="round" stroke-width="2"/><line x1="10" y1="14" x2="8" y2="16" fill="none" stroke="#fff" stroke-miterlimit="10" stroke-width="2"/><line x1="15" y1="9" x2="13" y2="11" fill="none" stroke="#fff" stroke-miterlimit="10" stroke-width="2"/><line x1="13" y1="14" x2="15" y2="16" fill="none" stroke="#fff" stroke-miterlimit="10" stroke-width="2"/><line x1="8" y1="9" x2="10" y2="11" fill="none" stroke="#fff" stroke-miterlimit="10" stroke-width="2"/><line x1="55" y1="24" x2="55" y2="26" fill="none" stroke="#bcc0c4" stroke-miterlimit="10" stroke-width="2"/><line x1="55" y1="28" x2="55" y2="30" fill="none" stroke="#bcc0c4" stroke-miterlimit="10" stroke-width="2"/><line x1="54" y1="27" x2="52" y2="27" fill="none" stroke="#bcc0c4" stroke-miterlimit="10" stroke-width="2"/><line x1="58" y1="27" x2="56" y2="27" fill="none" stroke="#bcc0c4" stroke-miterlimit="10" stroke-width="2"/><line x1="48" y1="14" x2="48" y2="16" fill="none" stroke="#bcc0c4" stroke-miterlimit="10" stroke-width="2"/><line x1="48" y1="18" x2="48" y2="20" fill="none" stroke="#bcc0c4" stroke-miterlimit="10" stroke-width="2"/><line x1="47" y1="17" x2="45" y2="17" fill="none" stroke="#bcc0c4" stroke-miterlimit="10" stroke-width="2"/><line x1="51" y1="17" x2="49" y2="17" fill="none" stroke="#bcc0c4" stroke-miterlimit="10" stroke-width="2"/></g></g></svg>