<svg xmlns="http://www.w3.org/2000/svg" viewBox="0 0 62 63.22"><defs><style>.cls-1{fill:#bee5df;}.cls-2{fill:#b5bd00;}.cls-2,.cls-3,.cls-4{stroke:#115e67;}.cls-2,.cls-3{stroke-linejoin:round;}.cls-2,.cls-3,.cls-4,.cls-5{stroke-width:2px;}.cls-3,.cls-5{fill:none;}.cls-4{fill:#fff;}.cls-4,.cls-5{stroke-miterlimit:10;}.cls-5{stroke:#bcc0c4;}</style></defs><g id="Layer_2" data-name="Layer 2"><g id="icons"><circle class="cls-1" cx="32" cy="26" r="26"/><path class="cls-2" d="M40.08,39.4h0A4.42,4.42,0,0,1,38,39.16a1.74,1.74,0,0,0-2,.66,4.79,4.79,0,0,1-7.9,0,1.74,1.74,0,0,0-2-.66,4.23,4.23,0,0,1-1.29.26h0a48.53,48.53,0,0,1-10,19.81,18.15,18.15,0,0,0,8.39-2.57,20.56,20.56,0,0,1,2.69,5.56c2.12-2,5.69-9,7-12,1.5,4.44,3.67,9.46,6.37,12a20.56,20.56,0,0,1,2.69-5.56,18.16,18.16,0,0,0,8.4,2.57A50.42,50.42,0,0,1,40.08,39.4Z"/><path class="cls-3" d="M32.79,50.23c-1.26,3-4.83,10-6.95,12a20.56,20.56,0,0,0-2.69-5.56,18.15,18.15,0,0,1-8.39,2.57,48.53,48.53,0,0,0,10-19.81"/><path class="cls-3" d="M30.38,41.62s3.29,15.44,8.78,20.6a20.56,20.56,0,0,1,2.69-5.56,18.16,18.16,0,0,0,8.4,2.57A50.42,50.42,0,0,1,40.08,39.4"/><path class="cls-4" d="M48,23a4.94,4.94,0,0,0-2.43-7.66,1.73,1.73,0,0,1-1.23-1.7A4.86,4.86,0,0,0,38,8.84a1.74,1.74,0,0,1-2-.66,4.79,4.79,0,0,0-7.9,0,1.74,1.74,0,0,1-2,.66,4.86,4.86,0,0,0-6.38,4.75,1.73,1.73,0,0,1-1.23,1.7A4.94,4.94,0,0,0,16,23a1.74,1.74,0,0,1,0,2.1,4.94,4.94,0,0,0,2.43,7.66,1.73,1.73,0,0,1,1.23,1.7A4.86,4.86,0,0,0,26,39.16a1.74,1.74,0,0,1,2,.66,4.79,4.79,0,0,0,7.9,0,1.74,1.74,0,0,1,2-.66,4.86,4.86,0,0,0,6.38-4.75,1.73,1.73,0,0,1,1.23-1.7A4.94,4.94,0,0,0,48,25.05,1.74,1.74,0,0,1,48,23Z"/><ellipse class="cls-2" cx="32" cy="23.98" rx="9" ry="9.02"/><line class="cls-5" x1="4" y1="49" x2="2" y2="51"/><line class="cls-5" x1="9" y1="44" x2="7" y2="46"/><line class="cls-5" x1="7" y1="49" x2="9" y2="51"/><line class="cls-5" x1="2" y1="44" x2="4" y2="46"/><line class="cls-5" x1="3" y1="10" x2="3" y2="12"/><line class="cls-5" x1="3" y1="14" x2="3" y2="16"/><line class="cls-5" x1="2" y1="13" y2="13"/><line class="cls-5" x1="6" y1="13" x2="4" y2="13"/><line class="cls-5" x1="56" y1="3" x2="54" y2="1"/><line class="cls-5" x1="61" y1="8" x2="59" y2="6"/><line class="cls-5" x1="59" y1="3" x2="61" y2="1"/><line class="cls-5" x1="54" y1="8" x2="56" y2="6"/><line class="cls-5" x1="59" y1="48" x2="59" y2="46"/><line class="cls-5" x1="59" y1="44" x2="59" y2="42"/><line class="cls-5" x1="58" y1="45" x2="56" y2="45"/><line class="cls-5" x1="62" y1="45" x2="60" y2="45"/></g></g></svg>