<svg xmlns="http://www.w3.org/2000/svg" viewBox="0 0 61.1 55.83"><g id="Layer_2" data-name="Layer 2"><g id="icons"><circle cx="22" cy="22" r="22" fill="#bee5df"/><path d="M12,15.83H56a2,2,0,0,1,2,2v32a0,0,0,0,1,0,0H10a0,0,0,0,1,0,0v-32A2,2,0,0,1,12,15.83Z" fill="#fff"/><path d="M36,48.83l-1,1H30l-1-1H5a4,4,0,0,0,4,4H44v-4Z" fill="#b5bd00" stroke="#115e67" stroke-linejoin="round" stroke-width="2"/><path d="M58,25.83v-8a2,2,0,0,0-2-2H12a2,2,0,0,0-2,2v31" fill="none" stroke="#115e67" stroke-miterlimit="10" stroke-width="2"/><path d="M44,48.83H36l-1,1H30l-1-1H5a4,4,0,0,0,4,4H44" fill="none" stroke="#115e67" stroke-miterlimit="10" stroke-width="2"/><rect x="46.9" y="29.83" width="13.19" height="25" rx="1.39" fill="#fff" stroke="#115e67" stroke-miterlimit="10" stroke-width="2"/><line x1="52.46" y1="52.74" x2="54.54" y2="52.74" fill="none" stroke="#2a5082" stroke-linejoin="round" stroke-width="2"/><line x1="26" y1="5.83" x2="26" y2="7.83" fill="none" stroke="#fff" stroke-miterlimit="10" stroke-width="2"/><line x1="26" y1="9.83" x2="26" y2="11.83" fill="none" stroke="#fff" stroke-miterlimit="10" stroke-width="2"/><line x1="27" y1="8.83" x2="29" y2="8.83" fill="none" stroke="#fff" stroke-miterlimit="10" stroke-width="2"/><line x1="23" y1="8.83" x2="25" y2="8.83" fill="none" stroke="#fff" stroke-miterlimit="10" stroke-width="2"/></g></g></svg>