<svg version="1" xmlns="http://www.w3.org/2000/svg" width="933.333" height="933.333" viewBox="0 0 700.000000 700.000000"><path d="M319 25.1c-16.6 1.7-27.5 8-36.3 20.9-1.7 2.5-3.5 4.8-4.1 5.2-.6.4-4.1.6-7.7.5-5.9-.2-7.1.1-11.5 3-2.7 1.8-8.4 5-12.6 7.3l-7.8 4H43.4l-5.5 2.7c-4 2.1-6.1 4-8.4 7.7l-3 4.9-.1 285.6c-.1 182.4.2 287 .8 289.6.6 2.2 2.3 5.8 4 8.1 3.9 5.5 9.6 7.7 20.8 8 61.4 1.9 77.4 2 334 .9 86.1-.4 182.4-.8 214-.9 63.5-.2 61.6 0 68.1-6.7 6.8-7 6.3 19.5 6.4-294.4 0-156.2-.3-286-.7-288.5-1.1-6.3-5.1-11.5-11.1-14.5l-5.1-2.5H444.1l-6.8-3.4c-6.3-3.1-14.3-5.5-23.8-7.2-6.7-1.1-11.8-4.2-15.9-9.5-7.8-10.1-18.7-16.8-31.9-19.5-7.8-1.7-35.8-2.4-46.7-1.3zm-98.5 49.4c-.5.2-6.1 2-12.3 3.9-13.8 4.4-22.6 8.5-28.1 13.2-5.3 4.6-11.7 15.6-21.8 37.4-2.4 5.1-7.9 13.7-13.7 21.4-15 20-17.4 25-18.2 37.6-.7 12.9-2.4 17.4-9 24.5-25.6 27.4-35.9 47.8-34 67.3 1 9.4 1 9.2-.9 14.2-3.2 8.7 0 26.6 8.1 45.1 4.8 11 7.4 15 15 23.3 4.4 4.7 6.7 8.1 7.4 11 5.1 19.9 8.5 27 17.6 36.6 3.9 4.1 8.2 9.7 9.5 12.4 3.7 7.5 10.6 14.2 15.7 15.1 5.1.8 10 4 12.4 8.1 1 1.7 2.9 8.6 4.2 15.3 1.4 7.1 3.4 13.6 4.7 15.7 2.5 4.1 8.1 8.1 12.6 9 5.6 1.1 8.3 9.1 9.8 29.9.3 4.4 1 9.9 1.6 12.3 2.3 10.4 9.2 19 17.2 21.4 4.2 1.3 7.7 4.9 7.7 8.1 0 4.4 5 10.6 12.3 15.3 4 2.6 9 5.8 11.2 7.3 2.2 1.4 11.9 10.4 21.5 20s18.5 18 19.6 18.8c4.6 3 13.2 3.7 39.4 3.5 14.6-.1 23.5.2 25.3.9 1.6.7 3.4 2.6 4.4 4.8 2.1 4.6 5.2 8.1 7.2 8.1.9 0 6-3.6 11.4-7.9 11.4-9.4 16.5-12 23.8-12.5 16.9-1.1 29.4 12.3 29.1 31.1-.1 7.3-1.9 10.8-5.7 10.9-3.8 0-5-.2-27.5-6.4-10.2-2.8-20.7-5.5-23.5-5.9-9.2-1.3-24.6-.8-32.2 1.2l-7.2 1.8-3.8-2.8c-2.1-1.6-4-3.2-4.3-3.6-.3-.3-2.1-1.5-4-2.5-6-3.2-19.3-2.5-31 1.5-11.9 4.1-13 4.3-21.1 4.3-5 .1-7.9-.5-12-2.4-6.8-3.2-10.7-7.1-18.2-18.3-3.5-5.1-9.6-12.3-14.5-17-23.1-21.7-29.6-30.7-32.7-44.9-1.6-7.1-1.3-30.1.4-35.6 4.2-13.4-3.3-17.8-16.8-9.7-6.1 3.6-12.9 11.4-17.4 19.9-5.1 9.5-11.4 22.1-16.1 32.2-4.3 9.2-9.2 16.5-14.1 20.9-5.8 5.3-17.8 12-33 18.5-9.3 4.1-25.8 11.9-36.5 17.5-17.5 9.2-19.8 10.7-22.5 14.7l-3 4.5.1-279.5c.1-153.7.2-280.5.3-281.7.1-2.6 4.6-8.2 7.5-9.3 1.2-.5 41.9-.9 90.6-.9 48.7.1 88.1.2 87.5.4zM659.7 76c1.8 1 4 3.6 5 5.7 1.8 3.6 1.8 15.5 1.8 288.3-.1 234.2-.4 284.9-1.5 287-1.8 3.4-4.9 5.7-9 6.7-1.9.5-32.1.8-67 .8l-63.5-.1-8.6-4c-20.5-9.8-27.4-16.3-38.4-36.4-9.9-18.2-15.4-24.3-24.4-27.6-2.5-.9-7-2.7-9.8-4-9.5-4.1-9.4-9.5.2-17.7 8.9-7.8 12.1-15.3 14.8-35.2.8-5.5 2.4-12.2 3.7-15 5.6-12.3 6.3-17.5 3.5-27.5-2-7.5-1.9-11.9.7-18.7 2.4-6.4 2.8-16.1 1.4-29.2l-.9-7.4 4.7-9.1c3.6-7 5.7-13.2 9.1-26.8 2.4-9.8 5.1-19 5.8-20.5.8-1.6 3.3-8.9 5.7-16.3 4.9-15.6 9.8-27 15.3-35.4 4.6-6.9 9.3-16.1 10.3-20.2.4-1.6 2.7-5.3 5.1-8.3 9.8-12.1 13.7-24.4 13.8-43.6 0-13.6-.3-17.2-2.9-29.6-3.5-16.7-9.1-29-17.6-38.9-3.4-4-4.9-6.7-5.3-9.6-.8-5.7-2.3-9-6.9-15.8-6.8-10-7.8-12.9-7.8-23.8 0-12.5-1.6-16.7-10-27.1-.8-1-6.9-5.9-13.5-10.9-6.6-4.9-13.5-10.6-15.3-12.7-3-3.3-6.2-10.1-7.8-16.6l-.6-2.5h103.3c100.9 0 103.5.1 106.6 2zm-365 23.4c3.8 1.3 8.2 3.5 9.3 4.6.3.3 3 2.4 6 4.6 6.3 4.8 10 6.7 22.4 11.8 12.4 5.2 17.7 8.9 28.9 20.5 12.3 12.6 16 15.1 28.3 19.1 13.8 4.5 16.9 6.3 20.6 12.2 1.8 2.8 2.2 4.4 3.8 14.8 1.4 9.3 1.7 10.5 3.5 14.3 2.1 4.4 7.7 7.5 15.1 8.2 13.8 1.3 16.3 1.5 24.3 2 8 .6 14.1-.5 14.1-2.5 0-1.7 6.6-7 9.4-7.5 4.8-.9 10.7 1.5 12.9 5.2 2.5 4.4 2.4 8.9-.9 22.8-2.5 10.8-2.8 13.9-2.8 30.2l-.1 18.3-10.5.1c-17.5.3-26.2 1.2-42 4.5-15.7 3.3-24.7 6.2-29.7 9.6-5 3.4-6.2 5.3-6.5 10.5-.2 5.1.6 7.7 6.3 19.3 11.2 22.8 22.7 55.2 25.3 71 1.3 7.8 1.3 13.3.1 18.1-1.7 6.2-3.8 9.1-8.6 11.8-3.9 2.2-4.9 2.3-15.3 1.7-6.1-.3-12.7-.8-14.6-1.1-1.9-.2-7.8-.9-13-1.5-16.5-1.9-20.9-3-23.1-5.8-3.2-4.2-1.5-11 5.3-21 2.5-3.6 2.7-4.3 1.3-4.8-4.7-1.9-16.2 2.7-28.5 11.4-25.2 17.7-57 51.1-57 59.9 0 5.4 5 1.7 17.2-12.5 15.6-18.3 26.9-28.2 39.6-34.6l5.2-2.6v2.7c0 5.2 2 10 5.8 14 5.1 5.3 7.6 6.9 14.7 9.1 5.7 1.9 9.8 2.5 22.6 3.7 7.3.7 16.4 3.1 21.4 5.6 10.8 5.6 14 13.6 6.8 17.2-2.6 1.3-4.4 1.9-11.3 3.2-3 .6-19.7.7-22.5.2-1.1-.3-4.2-.8-7-1.1-2.7-.4-11.3-2.3-19-4.3-34.3-8.6-53.3-3.8-56.2 14.2-1.1 6.7 4.7 9.1 7.2 3.1 4.4-10.5 18.4-12.4 40.6-5.7 9.8 3 17.9 5 23.9 5.8 6.5.9 27.1.9 35.4 0 7.2-.7 9.6.3 9.6 4.3 0 6.5-10.4 12.7-23.3 13.8-8.7.8-13.6.3-35.6-3.7-13-2.4-22.7-2.7-23.4-.9-.7 2.1 1.1 7 3.5 9.6 5.5 5.8 13.3 7.5 27.3 5.6 3.9-.5 14-.9 22.5-.9 17.2.1 21 1.1 22.8 6.2 2.3 6.7-.4 12-8.9 17.1-7 4.2-11.6 5.4-21.4 5.5-7.4.1-20.2-1-21.6-1.8-.3-.2-2.8-.7-5.5-1-2.7-.3-5.8-.8-6.9-1-1.1-.2-5.6-.7-10-1-13.7-1.1-17.4-2.8-22.2-10.1-3.3-5.1-13.2-7.9-19.5-5.5-1.3.5-5 3.7-8.3 7.1-6.3 6.5-12.1 9.9-16.8 10-6.7 0-13.4-5.1-16.8-12.9-2.4-5.4-2.7-7.4-3.4-22.6-.4-9.4-1.3-14.7-4-24.5-4.2-15-4.6-17.8-6-40.5-.6-9.1-1.4-17.3-2-19.5-.2-.8-.7-3.5-1-6-.9-5.9-5.7-24.5-8.8-34-7.1-21.4-8.8-31.9-6.7-41.4 1.2-5.2 1.9-7 10.3-22.7 7.3-13.6 9.6-22.3 9.2-34.9-.4-13.3-1.4-17.4-7.3-30-1.9-4.1-5-10.8-6.8-14.8-4.6-9.9-6.2-17.8-6.2-29.7 0-20.3 8.9-52.2 20.1-71.8 5.4-9.5 16.4-20.5 24.6-24.7 11.3-5.6 24.1-7 33.8-3.6zM149.1 269.6c11 3.3 19.3 10.7 26.2 23.4 9.4 17.4 11.4 34.7 5.6 48.4-5 11.7-4.6 17.8 1.9 31.6 4.3 9.1 4.7 16 1.4 23-6.2 12.8-20.8 21.3-27 15.6-1.1-1-5.3-7.2-9.2-13.9-4-6.7-11.2-17.8-15.9-24.7-18.6-26.6-24.4-39.8-25-57.2-.5-12.8 6.7-30.3 16.4-40.3 7.2-7.4 14.7-9.1 25.6-5.9zm309.1 77.8c2 .3 5.5 1.4 7.7 2.5 9.9 5.1 13.6 24.8 8.1 42.6-4.1 13.3-9.3 19.4-16 19.1-7.3-.4-10-3.7-11.8-14.6-1.1-6.2-1.4-8.9-2.7-20.5-.9-8.2-3.7-20.7-5.6-25.2l-1.8-4.2 2.7-.3c2.9-.4 13.3 0 19.4.6z"/><path d="M303.6 255.7c-12.4 2.8-25.4 12.7-33.6 25.5-10.6 16.3-14 30.3-8.9 36.4 1.8 2.2 6.9 1.6 13.8-1.6 9.3-4.4 11.5-4.5 21.3-1 10.5 3.6 14.5 3.7 22.3.4 10.2-4.4 13.4-4.2 15.8.9 2.7 5.7.8 14.8-4.5 21-1.2 1.5-5.8 4.2-10.1 6.1-4.3 1.9-8.1 3.7-8.4 4-.5.5 2.4 1 4.7.8 21-1.7 27.5-5.3 34.5-18.6 3.8-7.2 10.3-14.2 17.6-18.9 9.3-5.8 10.4-9.1 7.4-20.6-2.3-9-5.2-14.6-9.4-18.4-5.2-4.6-7.8-5.9-20.2-10-21.5-7.1-31.6-8.5-42.3-6zm13.7 35.2c2.2.1 6.7 4.5 6.7 6.4 0 2.4-4.8 3.7-14.9 4.3-8.1.4-10 .2-11-1-1.1-1.3-1.1-2 .3-4 1.8-2.8 10.5-6.4 14.5-6 1.4.1 3.4.2 4.4.3zM127.3 288.7c-6.7 1.3-15.3 16.8-12.3 22.2 1.9 3.7 7.3 2.3 11.8-3.1 4.9-5.9 12.9-7.6 17-3.8 1.2 1.1 3.7 4.5 5.6 7.4 2.5 3.9 4.5 5.8 7 6.7 6 2.2 4.8 4.4-4.9 9-13.7 6.5-14.4 11.1-4.1 25.7 7.8 11 9.2 11.4 9.8 3 .5-7.8 3.3-13.6 9.4-19.3 5.7-5.4 5.7-8.1.3-18.3-2.3-4.2-5.9-11.1-7.9-15.2-4.2-8.5-7.2-11.6-12.5-13.4-3.6-1.3-14.9-1.8-19.2-.9z"/></svg>