<svg xmlns="http://www.w3.org/2000/svg" viewBox="0 0 166.1 170.01"><defs><style>.cls-1{fill:#939393;}</style></defs><title>Equal Housing Lender</title><g id="Layer_2" data-name="Layer 2"><g id="Layer_1-2" data-name="Layer 1"><path class="cls-1" d="M84,0,0,47.8V65.07H12.87v59.39H153V65.07h13.1V48.27Zm52.87,109.33H29.94V49.71L84,18l52.87,31.71Z"/><rect class="cls-1" x="55.24" y="57.74" width="55.91" height="14.67"/><rect class="cls-1" x="55.24" y="79.59" width="55.91" height="14.67"/><path class="cls-1" d="M95.52,151.32H85.69V170h9.59c7.72,0,12.17-1.66,12.17-9C107.45,153.45,102.53,151.32,95.52,151.32ZM95,166H90.83V155.33h4.68c3.28,0,6.32,1.89,6.32,5.68C101.83,165.27,99,166,95,166Z"/><path class="cls-1" d="M152.64,162.2c3.51-.47,5.15-1.89,5.15-5,0-4.26-2.11-5.92-7.25-5.92H137V170h5.15V162.2H147l5.38,7.81H158Zm-3.06-4h-7.49v-2.84h7.72c2.11,0,3,.24,3,1.42C152.85,158.2,152.15,158.2,149.58,158.2Z"/><polygon class="cls-1" points="73.16 162.91 63.33 151.32 57.48 151.32 57.48 170.01 62.4 170.01 62.4 158.65 72.22 170.01 78.07 170.01 78.07 151.32 73.16 151.32 73.16 162.91"/><polygon class="cls-1" points="14.4 151.32 9.25 151.32 9.25 170.01 27.73 170.01 27.73 165.99 14.4 165.75 14.4 151.32"/><polygon class="cls-1" points="33.02 170.01 51.04 170.01 51.04 165.99 38.4 165.99 38.4 161.97 48.93 161.97 48.93 158.18 38.4 158.18 38.4 155.34 51.04 155.34 51.04 151.32 33.02 151.32 33.02 170.01"/><polygon class="cls-1" points="113.2 170.01 130.99 169.77 130.99 165.99 118.35 165.99 118.35 161.97 129.11 161.97 129.11 158.18 118.35 158.18 118.35 155.34 130.99 155.34 130.99 151.32 113.2 151.32 113.2 170.01"/><path class="cls-1" d="M54.57,129.92h-4l-4.68,16.8h3.41l1-3.79h4.21l1,3.79h3.64Zm-3.49,10.22,1.4-6.63,1.64,6.63Z"/><path class="cls-1" d="M30.12,144.35a8.54,8.54,0,0,0,.94-4.5v-3.55c0-4-.94-6.86-5.61-6.86-4.21,0-5.61,2.37-5.61,6.63v4.5c0,5.68,3.28,5.92,12.87,5.92l.23-1.18Zm-2.59-3.79c0,3.08-.23,3.79-2.11,3.79-1.64,0-2.11-.95-2.11-4v-4c0-3.08.23-4,2.34-4,1.64,0,1.87.47,1.87,3.79Z"/><path class="cls-1" d="M120.9,144.35c-1.4,0-2.34-.95-2.81-2.6l-2.81.47c0,2.6,1.64,4.73,5.38,4.73,3,0,5.85-2.13,5.85-4.73,0-4-7.49-5.92-7.49-8.52,0-.95.94-1.42,1.87-1.42,1.4,0,2.11.95,2.81,2.37l2.34-.95c-.23-2.37-1.87-4.26-5.38-4.26-2.81,0-5.15,1.42-5.15,4.26,0,4.73,7.49,5.92,7.49,9C123,143.88,122.31,144.35,120.9,144.35Z"/><path class="cls-1" d="M95.54,129.44c-3.51,0-5.61,1.89-5.61,6.39v5.44c0,4,1.17,5.68,5.61,5.68s5.61-1.89,5.61-6.39v-5.21C101.15,131.1,100,129.44,95.54,129.44Zm2.1,11.12c0,2.84-.7,3.79-2.11,3.79-1.87,0-2.11-1.18-2.11-3.55v-5.21c0-2.13.23-3.55,2.11-3.55s2.11,1.66,2.11,3.55Z"/><path class="cls-1" d="M152.41,132c1.64,0,2.57,1.18,2.81,2.84l2.34-.95c-.23-2.84-2.1-4.5-5.38-4.5-4.68,0-5.61,2.6-5.61,6.15v5c0,5,1.4,6.39,6.08,6.39,3.62,0,4.68-1.72,4.68-3.55V138h-4.91v2.6H154v1.89c0,1.42-.47,2.13-1.64,2.13-2.34,0-2.57-1.66-2.57-4v-3.79C149.84,133.94,150.07,132,152.41,132Z"/><path class="cls-1" d="M113.61,129.91h-3.28v9.7c0,3.79-.23,4.73-2.11,4.73s-2.11-1.42-2.11-5v-9.46h-3.51v9.7c0,5.68,1,7.49,5.88,7.49,3.74,0,5.12-2.05,5.12-7Z"/><polygon class="cls-1" points="144.87 146.72 144.87 129.92 142.06 129.92 142.06 140.33 138.31 129.92 133.87 129.92 133.87 146.72 136.68 146.72 136.68 135.36 140.65 146.72 144.87 146.72"/><path class="cls-1" d="M34.42,129.91v10.17c0,4.73.47,6.86,5.15,6.86,5.38,0,5.61-2.6,5.61-7.34v-9.7H41.91v9.94c0,3.31-.47,4.26-2.11,4.26-1.87,0-2.11-.95-2.11-4.73v-9.46Z"/><polygon class="cls-1" points="87.5 146.72 87.5 129.92 84.23 129.92 84.23 136.3 80.25 136.3 80.25 129.92 76.97 129.92 76.97 146.72 80.25 146.72 80.25 139.14 84.23 139.14 84.23 146.72 87.5 146.72"/><polygon class="cls-1" points="17.43 132.52 17.43 129.92 9.01 129.92 9.01 146.72 17.43 146.72 17.43 144.11 12.29 144.11 12.29 139.38 16.97 139.38 16.97 137.01 12.29 137.01 12.29 132.52 17.43 132.52"/><polygon class="cls-1" points="60.73 129.92 60.73 146.72 68.45 146.72 68.45 144.11 63.54 144.11 63.54 129.92 60.73 129.92"/><rect class="cls-1" x="128.23" y="129.92" width="3.04" height="16.8"/></g></g></svg>