<?xml version="1.0" encoding="utf-8"?>
<!-- Generator: Adobe Illustrator 25.1.0, SVG Export Plug-In . SVG Version: 6.00 Build 0)  -->
<svg version="1.1" id="Layer_1" xmlns="http://www.w3.org/2000/svg" xmlns:xlink="http://www.w3.org/1999/xlink" x="0px" y="0px"
	 viewBox="0 0 314.5 112.8" style="enable-background:new 0 0 314.5 112.8;" xml:space="preserve">
<style type="text/css">
	.st0{fill:none;stroke:#0B5E66;stroke-width:3;stroke-miterlimit:10;}
	.st1{fill:#035C67;}
	.st2{fill:#94B7BB;}
	.st3{fill:none;}
	.st4{fill:#0B5E66;}
</style>
<path class="st0" d="M308.6,110.8H4.9c-1.6,0-2.9-1.3-2.9-2.9V12.4c0-1.6,1.3-2.9,2.9-2.9h303.7c1.6,0,2.9,1.3,2.9,2.9v95.4
	C311.5,109.5,310.2,110.8,308.6,110.8z"/>
<g id="Text_1_">
	<g id="SAVINGS_BANK_1_">
		<path class="st1" d="M98.3,94.7c1.3,0.8,3.1,1.4,5.1,1.4c2.9,0,4.6-1.5,4.6-3.7c0-2-1.2-3.2-4.1-4.4c-3.6-1.3-5.8-3.1-5.8-6.2
			c0-3.4,2.8-5.9,7.1-5.9c2.2,0,3.9,0.5,4.8,1.1l-0.8,2.3c-0.7-0.4-2.2-1-4.2-1c-3,0-4.1,1.8-4.1,3.3c0,2,1.3,3.1,4.4,4.2
			c3.7,1.4,5.6,3.2,5.6,6.4c0,3.4-2.5,6.3-7.7,6.3c-2.1,0-4.4-0.6-5.6-1.4L98.3,94.7z"/>
		<path class="st1" d="M118.2,91.2l-2.3,6.9H113l7.4-21.9h3.4l7.5,21.9h-3l-2.3-6.9H118.2z M125.4,89l-2.1-6.3
			c-0.5-1.4-0.8-2.7-1.1-4h-0.1c-0.3,1.3-0.7,2.6-1.1,4l-2.1,6.3H125.4z"/>
		<path class="st1" d="M139.4,98.1l-7.1-21.9h3.1l3.4,10.8c0.9,3,1.8,5.6,2.3,8.2h0.1c0.6-2.5,1.5-5.3,2.5-8.2l3.7-10.8h3l-7.8,21.9
			H139.4z"/>
		<path class="st1" d="M155.5,76.2v21.9h-2.8V76.2H155.5z"/>
		<path class="st1" d="M160.5,98.1V76.2h3.1l7,11.1c1.6,2.6,2.9,4.9,3.9,7.1l0.1,0c-0.3-2.9-0.3-5.6-0.3-9v-9.2h2.7v21.9h-2.9
			l-7-11.1c-1.5-2.4-3-4.9-4.1-7.3l-0.1,0c0.2,2.8,0.2,5.4,0.2,9v9.4H160.5z"/>
		<path class="st1" d="M198.5,97.1c-1.3,0.5-3.8,1.2-6.7,1.2c-3.3,0-6-0.8-8.2-2.9c-1.9-1.8-3.1-4.7-3.1-8.2
			c0-6.5,4.5-11.3,11.9-11.3c2.5,0,4.5,0.6,5.5,1l-0.7,2.3c-1.2-0.5-2.6-0.9-4.8-0.9c-5.3,0-8.8,3.3-8.8,8.8c0,5.6,3.3,8.8,8.5,8.8
			c1.9,0,3.1-0.3,3.8-0.6v-6.5h-4.5v-2.3h7.2V97.1z"/>
		<path class="st1" d="M202.5,94.7c1.3,0.8,3.1,1.4,5.1,1.4c2.9,0,4.6-1.5,4.6-3.7c0-2-1.2-3.2-4.1-4.4c-3.6-1.3-5.8-3.1-5.8-6.2
			c0-3.4,2.8-5.9,7.1-5.9c2.2,0,3.9,0.5,4.8,1.1l-0.8,2.3c-0.7-0.4-2.2-1-4.2-1c-3,0-4.1,1.8-4.1,3.3c0,2,1.3,3.1,4.4,4.2
			c3.7,1.4,5.6,3.2,5.6,6.4c0,3.4-2.5,6.3-7.7,6.3c-2.1,0-4.4-0.6-5.6-1.4L202.5,94.7z"/>
		<path class="st1" d="M225.8,76.5c1.2-0.3,3.2-0.5,5.2-0.5c2.8,0,4.6,0.5,6,1.6c1.1,0.8,1.8,2.1,1.8,3.9c0,2.1-1.4,4-3.7,4.8v0.1
			c2.1,0.5,4.5,2.2,4.5,5.5c0,1.9-0.7,3.3-1.9,4.4c-1.5,1.4-4,2-7.6,2c-1.9,0-3.4-0.1-4.4-0.3V76.5z M228.6,85.5h2.6
			c3,0,4.7-1.6,4.7-3.7c0-2.6-2-3.6-4.8-3.6c-1.3,0-2,0.1-2.5,0.2V85.5z M228.6,96c0.6,0.1,1.4,0.1,2.4,0.1c2.9,0,5.6-1.1,5.6-4.3
			c0-3-2.6-4.2-5.7-4.2h-2.3V96z"/>
		<path class="st1" d="M246.9,91.2l-2.3,6.9h-2.9l7.4-21.9h3.4l7.5,21.9h-3l-2.3-6.9H246.9z M254.1,89l-2.1-6.3
			c-0.5-1.4-0.8-2.7-1.1-4h-0.1c-0.3,1.3-0.7,2.6-1.1,4l-2.1,6.3H254.1z"/>
		<path class="st1" d="M263.3,98.1V76.2h3.1l7,11.1c1.6,2.6,2.9,4.9,3.9,7.1l0.1,0c-0.3-2.9-0.3-5.6-0.3-9v-9.2h2.7v21.9h-2.9
			l-7-11.1c-1.5-2.4-3-4.9-4.1-7.3l-0.1,0c0.2,2.8,0.2,5.4,0.2,9v9.4H263.3z"/>
		<path class="st1" d="M284.7,76.2h2.8v10.6h0.1c0.6-0.8,1.2-1.6,1.7-2.3l6.7-8.2h3.5l-7.9,9.3l8.5,12.6h-3.3l-7.2-10.8l-2.1,2.4
			v8.4h-2.8V76.2z"/>
	</g>
	<g id="Lincoln_1_">
		<path class="st2" d="M97.3,24.6h6v41.6h20v5.1h-26V24.6z"/>
		<path class="st2" d="M136.9,28.4c0.1,2.1-1.5,3.7-3.9,3.7c-2.1,0-3.7-1.7-3.7-3.7c0-2.1,1.6-3.8,3.8-3.8
			C135.5,24.5,136.9,26.2,136.9,28.4z M130.1,71.3V37.8h6.1v33.5H130.1z"/>
		<path class="st2" d="M146.7,46.9c0-3.5-0.1-6.3-0.3-9.1h5.4l0.3,5.5h0.1c1.7-3.2,5.5-6.3,11.1-6.3c4.6,0,11.8,2.8,11.8,14.3v20
			h-6.1V52c0-5.4-2-9.9-7.8-9.9c-4,0-7.1,2.8-8.2,6.2c-0.3,0.8-0.4,1.8-0.4,2.8v20.2h-6.1V46.9z"/>
		<path class="st2" d="M209.4,70.1c-1.6,0.8-5.1,1.9-9.6,1.9c-10.1,0-16.7-6.9-16.7-17.1c0-10.3,7.1-17.8,18-17.8
			c3.6,0,6.8,0.9,8.5,1.7l-1.4,4.7c-1.5-0.8-3.7-1.6-7.1-1.6c-7.7,0-11.8,5.7-11.8,12.7c0,7.8,5,12.5,11.6,12.5
			c3.5,0,5.8-0.9,7.5-1.7L209.4,70.1z"/>
		<path class="st2" d="M247.2,54.3c0,12.4-8.6,17.8-16.7,17.8c-9.1,0-16.1-6.7-16.1-17.3c0-11.2,7.3-17.8,16.6-17.8
			C240.7,37,247.2,44,247.2,54.3z M220.6,54.6c0,7.3,4.2,12.9,10.2,12.9c5.8,0,10.2-5.5,10.2-13c0-5.7-2.8-12.9-10-12.9
			C223.7,41.6,220.6,48.2,220.6,54.6z"/>
		<path class="st2" d="M255.3,22.1h6.1v49.2h-6.1V22.1z"/>
		<path class="st2" d="M272,46.9c0-3.5-0.1-6.3-0.3-9.1h5.4l0.3,5.5h0.1c1.7-3.2,5.5-6.3,11.1-6.3c4.6,0,11.8,2.8,11.8,14.3v20h-6.1
			V52c0-5.4-2-9.9-7.8-9.9c-4,0-7.1,2.8-8.2,6.2c-0.3,0.8-0.4,1.8-0.4,2.8v20.2H272V46.9z"/>
	</g>
</g>
<line class="st3" x1="48" y1="43.1" x2="46.2" y2="43.1"/>
<g>
	<path class="st4" d="M59.3,44.1c-1-1.3-2.8-1.9-4.4-2.4c-1.8-0.5-3.5-1.1-5.4-1c-1.9,0.1-3.6,1-5,2.2c-1.4,1.2-2.4,2.8-3.2,4.5
		c-0.4,0.8-0.7,1.6-0.7,2.5c0,0.4,0,0.9,0.3,1.3c0.6,0.9,1.6,0.3,2.3-0.1c0.7-0.3,1-0.6,1.7-0.7c0.6,0,0.5,0,1.7,0.3
		c0.5,0.1,0.9,0.3,1.4,0.5c1.2,0.5,2.4-0.1,3.4-0.6c0.6-0.3,1.3-0.4,1.8,0c0.3,0.3,0.5,0.7,0.5,1.2c0.1,1-0.3,2.1-1.1,2.9
		c-0.8,0.9-2,1.1-3.1,1.5c-0.1,0.5,1.5,0.2,2.3,0.1c0.6-0.1,1.3-0.2,1.9-0.4c1.5-0.6,2-1.9,2.7-3.2c0.6-1,1.4-1.9,2.4-2.5
		c0.5-0.3,1.1-0.6,1.4-1.1c0.4-0.7,0.3-1.6,0.1-2.3C60.2,45.9,59.9,44.9,59.3,44.1z M48.8,48.7c-0.5,0-1.7,0.4-1.7-0.5
		c0-1.1,3.4-2.1,4.4-0.7C52.2,48.8,50,48.7,48.8,48.7z"/>
	<path class="st4" d="M24.3,50.2c-0.6-1-0.9-2.3-1.8-3c-0.7-0.6-1.6-0.7-2.5-0.7c-0.8,0-1.7-0.1-2.4,0.5c-0.7,0.5-1.1,1.4-1.4,2.2
		c-0.1,0.3-0.2,0.7-0.1,1c0.2,0.8,1.1,0.6,1.6,0.2c0.2-0.2,0.4-0.4,0.6-0.7c0.4-0.4,0.9-0.8,1.5-0.9c1.9-0.3,1.9,2.3,3.4,2.8
		c0.2,0.1,0.4,0.1,0.6,0.3c0.1,0.1,0.1,0.3,0,0.4c-0.2,0.3-0.6,0.4-0.9,0.6c-0.4,0.2-0.9,0.4-1.3,0.6c-0.5,0.3-1,0.7-1.1,1.3
		c-0.1,0.3,0,0.6,0.1,0.9c0.3,1,1.1,1.8,1.7,2.7c0.1,0.1,0.5,0.8,0.9,0.8c0.4,0,0.2-0.6,0.2-0.9c-0.1-1.3,0.7-2.8,1.7-3.6
		c0.2-0.2,0.4-0.3,0.5-0.5c0.3-0.3,0.3-0.9,0.1-1.2C25.3,51.9,24.9,51,24.3,50.2z"/>
	<path class="st4" d="M87.1,111.6c1.5,0.1,2.3-0.1,1.2-0.6c-2.6-1.1-4.3-1.6-5.9-2.7c-1.8-1.2-2.3-1.6-3.4-3.1
		c-1.2-1.8-1.8-3.9-3.4-5.4c-0.7-0.8-1.6-1.2-2.6-1.5c-0.7-0.2-1.9-0.6-2.1-1.4c-0.1-0.4,0.1-0.9,0.5-1.5c2.7-1.6,3-4.5,3.3-7.3
		c0.2-1.5,1.2-2.7,1.4-4.2c0.2-1.5-0.6-2.5-0.6-3.9c0-0.7,0.3-1.2,0.5-1.9c0.3-0.8,0.3-1.5,0.3-2.3c0-1-0.3-2-0.3-3
		c-0.1-0.9,0.8-1.7,1.2-2.5c0.7-1.3,0.8-3,1.2-4.3c0.2-0.7,0.4-1.4,0.6-2.1c0.2-0.7,0.6-1.4,0.8-2.1c0.7-2.6,1.6-5.3,3.1-7.6
		c0.8-1.2,1.7-2.5,1.9-4c1.6-1.4,2.5-3.5,2.9-5.6c0.6-3,0-6.5-0.8-9.5c-0.5-1.9-1.4-3.7-2.8-5.1c-0.2-0.2-0.4-0.4-0.5-0.6
		c-0.1-0.2-0.1-0.4-0.1-0.7c-0.1-2.1-2-3.1-2.4-5c-0.2-1,0.1-2.1-0.1-3.2c-0.2-0.8-0.5-1.5-1-2.1c-1.1-1.6-2.6-2.4-4.1-3.5
		c-0.8-0.5-2-1.6-2.3-2.6c-0.3-1-0.5-2-1.2-2.9c-0.9-1-2.6-1.5-3.8-1.9c-1.3-0.4-3.1-0.3-4-1.6c-0.3-0.5-0.8-1-1.2-1.4
		c-0.8-0.7-1.6-1.3-2.6-1.7c-1.8-0.8-3.8-0.8-5.8-0.9c-0.2,0-0.5,0-0.7,0c-1.9,0-3.8,0-5.6,0.6c-1,0.3-1.9,0.9-2.7,1.7
		c-0.4,0.4-0.8,0.8-1.1,1.3c-0.2,0.3-0.5,1.1-0.9,1.2c-0.2,0.1-0.4,0-0.5,0c-0.5,0-1-0.1-1.4,0c-1,0.2-1.8,1-2.7,1.5
		c-1.1,0.5-2.2,1-3.3,1.6c-1,0.6-2.3,0.9-3.5,1.3c-2.6,0.8-5.2,1.7-6.4,4.1c0,0.1-1.1,2.1-1.5,2.7c0,0-1,2.5-1.6,3.5
		c-1.9,2.8-5.1,5.2-4.8,8.8c0,2.6-1.2,3.2-2.8,5.1c-2.5,2.9-5.6,7-4.2,11.5C9.3,49,12,55.3,13.5,57.6l2.3,2.6
		c0.3,0.8,0.7,3.2,1.7,5.1c0.8,1.5,2.3,2.5,2.7,3.1c0.5,1.2,1.6,3.1,3,3.3c4.7,0.8,0.8,7.3,6.3,8.3c0.8,1.1,1,2.7,1.1,4.2
		c0,0.1,0,0.5,0,0.6c0.1,1.4,0.3,3,1.1,4.2c0.4,0.5,0.8,1,1.4,1.3c0.6,0.4,1.5,0.4,1.9,1c0.2,0.3,0.2,0.6,0.2,1
		c0.2,0.7,0.7,1.4,1.3,1.8c0.6,0.5,1.3,0.8,1.9,1.2c1.5,1,2.8,2.2,4,3.5c0.9,0.9,1.7,1.8,2.6,2.7c0.3,0.3,0.7,0.7,1.1,0.9
		c0.4,0.2,0.9,0.3,1.4,0.4c2.6,0.4,5.2,0.2,7.9,0.1c0.7,0,1.5,0,2,0.5c0.3,0.3,0.4,0.7,0.5,1.1c0.2,0.4,0.5,0.8,0.9,0.8
		c0.3,0,0.6-0.2,0.8-0.4c1.1-0.9,2.1-1.9,3.3-2.5c2.3-1.3,5.1-0.4,6.3,2.1c0.6,1.3,0.8,2.8,0.3,4.2c0,0.1-0.1,0.2-0.1,0.2
		c-0.1,0.1-0.3,0.1-0.4,0.1c-1.1,0-2-0.4-3.1-0.6c-1.4-0.4-2.8-0.8-4.2-1.1c-1.8-0.5-3.7-0.6-5.6-0.4c-0.6,0.1-1.2,0.2-1.7,0.4
		c-0.6,0.2-0.8,0.4-1.2,0c-0.8-0.7-1.3-1.3-2.4-1.5c-1.8-0.5-3.8,0.1-5.4,0.8c-1.7,0.6-3.7,0.7-5.3-0.3c-1.7-1-2.4-2.9-3.7-4.4
		c-0.5-0.7-1.2-1.2-1.8-1.8c-2.5-2.2-4.8-4.6-5.2-8c-0.2-1.5-0.1-3,0.1-4.4c0.1-0.6,0.5-1.7,0.3-2.3c-0.5-1.8-3.3,0-4,0.7
		c-1.5,1.4-2.3,3.4-3.2,5.2c-0.9,1.8-1.5,3.8-2.8,5.4c-1.2,1.5-2.8,2.5-4.5,3.3c-1.9,0.9-4,1.6-5.9,2.6c-1.6,0.9-3.2,1.7-4.8,2.5
		c-0.6,0.3-2.6,1-2.1,5.7c0.1,1.5,24.1,1.2,46.7,1C71.8,111.5,84.1,111.5,87.1,111.6z M13.5,53.8l-0.1-0.2c0,0,0,0,0,0
		C13.5,53.7,13.5,53.7,13.5,53.8L13.5,53.8z M18.7,63.5L18.7,63.5L18.7,63.5l0.1,0.1c0,0,0,0,0,0C18.7,63.6,18.7,63.5,18.7,63.5z
		 M28.4,63.2c-0.2,1.7-1.4,3.3-3,4.1c-0.5,0.3-1.2,0.4-1.7,0.2c-0.4-0.2-0.7-0.6-0.9-1c-1.1-1.8-2.1-3.7-3.4-5.4
		c-1.3-1.8-2.6-3.6-3.5-5.7c-0.8-1.9-1.3-3.9-0.9-6c0.2-1.4,0.9-2.6,1.6-3.8c0.5-0.9,1.1-1.7,2-2.2c2-1,4.6-0.1,6.1,1.4
		c2.3,2.3,4,6.9,2.9,10.1c-0.2,0.5-0.4,0.9-0.6,1.4c-0.4,1.1-0.2,2.2,0.2,3.3C27.7,60.8,28.6,62,28.4,63.2z M68.7,69.2
		c-1.2,0.7-3,0.3-4.3,0.2c-1.2-0.1-2.4-0.3-3.6-0.4c-0.9-0.1-2.1-0.1-3-0.6c-1.5-0.8,0-3.3,0.9-4.4c0.1-0.1,0-0.3-0.1-0.4
		c-0.9-0.2-1.9,0.2-2.8,0.7C50.9,67,43.3,74.9,44.1,76c0.5,0.7,2.5-1.9,3.5-3.2c2-2.4,4.2-4.4,7-5.5c-0.3,1.7,1,3.3,2.6,4
		c1.6,0.7,3.4,0.7,5.1,1c1.7,0.2,3.5,0.7,4.7,2c0.2,0.2,0.4,0.5,0.4,0.8c0,0.7-0.7,1.1-1.4,1.3c-3.2,0.8-6.5,0.2-9.7-0.7
		c-3.2-0.9-8.2-1.5-9.2,2c-0.1,0.4-0.3,1,0,1.3c0.2,0.3,0.7,0.3,1,0.1c0.2-0.2,0.3-0.5,0.4-0.8c0.1-0.3,0.4-0.6,0.6-0.8
		c0.4-0.3,1-0.4,1.5-0.5c2-0.2,3.7,0.4,5.5,1c3,0.9,6.1,1.1,9.2,0.6c0.4-0.1,0.9-0.1,1.2,0.1c0.6,0.5,0.1,1.4-0.5,1.9
		c-1.8,1.4-4.3,1.3-6.5,0.9c-2.1-0.4-4.1-1-6.2-0.9c-0.3,0-0.6,0.3-0.5,0.6c0.2,1.1,1.2,2,2.3,2.2c1.3,0.3,2.6,0,3.9-0.1
		c1.7-0.2,3.4-0.2,5.1,0c0.7,0.1,1.4,0.2,1.7,1.1c0.3,0.9-0.1,1.8-0.8,2.4c-3.4,2.7-7.9,0.7-12.1,0.5c-0.9-0.1-1.8,0-2.6-0.6
		c-0.5-0.4-0.8-1-1.2-1.4c-0.8-0.8-2.1-1-3.1-0.5c-1.6,0.8-2.3,3-4.4,2.9c-1.1-0.1-1.9-0.8-2.4-1.7c-1.1-2.1-0.6-4.4-1-6.6
		c-0.2-1.2-0.7-2.4-1-3.6c-0.4-1.6-0.4-3.3-0.5-5c-0.2-3.3-0.8-6.5-1.8-9.6c-0.8-2.5-2-5.2-1.3-7.8c0.4-1.7,1.5-3,2.3-4.6
		c1.2-2.5,1.4-5.4,0.5-8c-0.7-2-1.9-3.8-2.5-5.9c-1-3.3-0.3-6.9,0.7-10.2c0.9-3,2.1-6.1,4.3-8.3c2.3-2.2,5.9-3.3,8.7-1.8
		c1,0.5,1.9,1.4,2.9,2c1.6,1,3.6,1.4,5.1,2.4c2,1.4,3.3,3.8,5.5,4.9c1.7,0.8,4,0.9,5.1,2.4c1.3,1.8,0.3,4.8,2.1,6.1
		c0.6,0.4,1.4,0.5,2.1,0.5c1.6,0.1,3.1,0.2,4.7,0.4c0.4,0,0.8,0.1,1.1-0.1c0.4-0.2,0.6-0.7,0.8-1c0.8-1,2.5-0.9,3.2,0.1
		c0.7,1.1,0.3,2.5,0,3.7c-0.7,2.8-0.9,5.7-0.5,8.5c-4.2-0.2-8.3,0.3-12.3,1.6c-1.1,0.3-2.3,0.8-2.7,1.9c-0.4,1.1,0.1,2.3,0.7,3.4
		c1.8,3.7,3.3,7.5,4.3,11.4C70.2,64.9,70.8,68,68.7,69.2z M71.5,56.3c0.3,0,0.7,0,1,0c0.7,0,1.4,0,2.1,0.2c0.7,0.2,1.4,0.5,1.9,1.1
		c0.3,0.4,0.5,1,0.7,1.5c0.4,1.5,0.4,3.5-0.1,5c-0.4,1-1,3-2.3,3.3c-0.7,0.1-1.3-0.1-1.5-0.3c-1.4-0.8-0.8-6.9-2.6-10.7
		C70.7,56.4,71.4,56.3,71.5,56.3z"/>
</g>
</svg>
