<svg xmlns="http://www.w3.org/2000/svg" viewBox="0 0 313.5 111.34"><defs><style>.cls-1{fill:#fff;}.cls-2,.cls-4{fill:none;}.cls-3{fill:#0b5e66;}.cls-4{stroke:#fff;stroke-miterlimit:10;stroke-width:2px;}</style></defs><g id="Layer_2" data-name="Layer 2"><g id="Layer_1-2" data-name="Layer 1"><path class="cls-1" d="M30.42,90.3l2.36,1.07s1,2.22,1.06,2.23l5,3.45,4.9,4.5s1.81.9,1.84.9l10,.13.11.06,1,1.83a.54.54,0,0,0,.66.14c1.4-.7,4.14-4,7.4-3.08a3.91,3.91,0,0,1,2.84,5.24c-.76,1.83-8.11-2.6-15.77-.23a.08.08,0,0,1-.08,0c-2.65-2.21-3.72-2.31-10-.46-2.1-.06-3.24.87-6.17-3.21a25.91,25.91,0,0,0-4.11-4.16S26.1,95.23,27.71,87.6c.6-2.84,1.9,1.45,2.05,2C29.77,89.6,30.39,90.28,30.42,90.3Z"/><path class="cls-1" d="M64,51.21c-.53-1.06-1.11-2.29-.67-3.39a3.94,3.94,0,0,1,2.72-1.9,36.71,36.71,0,0,1,12.45-1.6A22,22,0,0,1,79,35.7c.33-1.25.74-2.68,0-3.74a2.14,2.14,0,0,0-3.26-.13c-.28.35-.46.81-.85,1a2,2,0,0,1-1.16.15L69,32.63a4.3,4.3,0,0,1-2.13-.55c-1.83-1.25-.85-4.3-2.12-6.12-1.11-1.6-3.43-1.62-5.18-2.47-2.22-1.09-3.47-3.53-5.53-4.91-1.59-1.07-3.57-1.43-5.2-2.44-1-.62-1.86-1.47-2.9-2-2.82-1.49-6.47-.4-8.76,1.82s-3.48,5.33-4.38,8.39c-1,3.34-1.69,7-.67,10.28.64,2.06,1.9,3.89,2.57,5.94a11.05,11.05,0,0,1-.54,8.09c-.74,1.56-1.87,3-2.3,4.63-.68,2.63.46,5.33,1.31,7.9a38.47,38.47,0,0,1,1.86,9.68,29.83,29.83,0,0,0,.49,5c.29,1.23.81,2.41,1,3.66.4,2.22-.16,4.57,1,6.66A3.16,3.16,0,0,0,40,87.91c2.12.16,2.79-2.11,4.41-2.89a2.78,2.78,0,0,1,3.1.53A13.07,13.07,0,0,0,48.76,87a4.59,4.59,0,0,0,2.58.59c4.19.25,8.81,2.28,12.2-.49a2.22,2.22,0,0,0,.82-2.4c-.3-.88-1-1-1.73-1.1a21.84,21.84,0,0,0-5.11,0,11.14,11.14,0,0,1-4,.13,3,3,0,0,1-2.32-2.25.55.55,0,0,1,.52-.62,30,30,0,0,1,6.27.89c2.25.39,4.77.42,6.61-.95.61-.45,1.1-1.42.52-1.9a1.48,1.48,0,0,0-1.23-.15,20.93,20.93,0,0,1-9.27-.65,15.18,15.18,0,0,0-4.21-1c-1.45,0-2.66.22-3.25,1.39-.3.61-.58,1.17-1.17,1.17s-.81-.76-.58-1.5c1.17-3.77,6.12-3.37,9.4-2.45a24.8,24.8,0,0,0,9.79.71c.68-.08,1.43-.59,1.41-1.27a1.41,1.41,0,0,0-.4-.82,7.21,7.21,0,0,0-4.71-2,18.06,18.06,0,0,1-5.14-1c-1.59-.72-3-2.37-2.64-4.09-2.94,1.55-3.4,2.37-5.55,4.28-1.24,1.1-3.79,4.88-4.69,4-1.12-1.38,6.46-8.66,11.44-11.33a4.44,4.44,0,0,1,2.79-.7.24.24,0,0,1,.15.39c-.92,1.06-2.42,3.62-.91,4.4a9.65,9.65,0,0,0,3,.6c1.22.17,2.44.3,3.67.43s3.15.51,4.32-.19c2.12-1.28,1.52-4.37,1-6.35A60.78,60.78,0,0,0,64,51.21Zm-4.43-2.27A4.23,4.23,0,0,1,58.14,50a6.83,6.83,0,0,0-2.48,2.5c-.76,1.32-1.19,2.61-2.74,3.19a8.57,8.57,0,0,1-1.93.44c-.79.12-2.47.39-2.35-.09a7,7,0,0,0,3.13-1.54,4,4,0,0,0,1.07-2.91,1.62,1.62,0,0,0-.5-1.18,1.73,1.73,0,0,0-1.77,0c-1.07.5-2.26,1.09-3.46.61a13.37,13.37,0,0,0-1.37-.53c-1.21-.35-1.07-.35-1.71-.32a5.31,5.31,0,0,0-1.76.68c-.76.33-1.7,1-2.34.06a2.07,2.07,0,0,1-.3-1.27,6.87,6.87,0,0,1,.72-2.56,13.59,13.59,0,0,1,3.23-4.56,8.51,8.51,0,0,1,5.06-2.21,15.67,15.67,0,0,1,5.42,1.05c1.64.5,3.42,1,4.47,2.38a7.33,7.33,0,0,1,1.15,2.81A3,3,0,0,1,59.57,48.94Z"/><path class="cls-2" d="M23.14,49.94c-.6-1-.91-2.3-1.79-3.06a3.88,3.88,0,0,0-2.51-.75,3.78,3.78,0,0,0-2.41.46A4.79,4.79,0,0,0,15,48.8a1.66,1.66,0,0,0-.09,1c.23.79,1.13.63,1.62.2a7.57,7.57,0,0,0,.61-.66,2.76,2.76,0,0,1,1.53-.91c1.95-.33,1.95,2.32,3.45,2.82.21.06.45.08.59.27a.45.45,0,0,1,0,.42c-.16.35-.58.42-.88.57s-.89.38-1.33.6a1.92,1.92,0,0,0-1.13,1.28,1.84,1.84,0,0,0,.09.87A10.43,10.43,0,0,0,21.19,58c.1.15.46.81.87.81s.2-.66.18-.86a4.68,4.68,0,0,1,1.69-3.65,3.64,3.64,0,0,0,.53-.51,1.25,1.25,0,0,0,.09-1.24C24.09,51.66,23.65,50.78,23.14,49.94Z"/><path class="cls-2" d="M58.39,43.82c-1-1.35-2.82-1.87-4.46-2.37a15.91,15.91,0,0,0-5.42-1.05,8.46,8.46,0,0,0-5,2.22,13.59,13.59,0,0,0-3.23,4.55,6.77,6.77,0,0,0-.72,2.55A2.09,2.09,0,0,0,39.82,51c.63.9,1.57.26,2.33-.06a5,5,0,0,1,1.76-.68c.64,0,.5,0,1.7.32.48.14.92.34,1.38.52,1.19.49,2.38-.11,3.45-.6a1.75,1.75,0,0,1,1.77,0,1.65,1.65,0,0,1,.49,1.19,4,4,0,0,1-1.06,2.9,7,7,0,0,1-3.13,1.54c-.12.48,1.56.21,2.34.09a8.53,8.53,0,0,0,1.94-.44c1.54-.58,2-1.86,2.73-3.19A7,7,0,0,1,58,50.06,3.91,3.91,0,0,0,59.42,49a3,3,0,0,0,.11-2.37A7.38,7.38,0,0,0,58.39,43.82ZM47.84,48.45c-.49,0-1.71.39-1.71-.48,0-1.09,3.42-2.15,4.4-.72C51.21,48.54,49.06,48.45,47.84,48.45Z"/><path class="cls-2" d="M11.56,53.63l-.08-.17a.11.11,0,0,1,0-.05l.09.18Zm5.2,9.74v0l.08.14h0Zm9.83-.24a5.52,5.52,0,0,1-3,4.15,2,2,0,0,1-1.73.17,2.43,2.43,0,0,1-.92-1c-1.13-1.85-2.12-3.73-3.4-5.48A30.84,30.84,0,0,1,14,55.23a10.43,10.43,0,0,1-.91-6,11.32,11.32,0,0,1,1.6-3.85,5.64,5.64,0,0,1,2.06-2.19c2-1,4.65,0,6.15,1.44,2.32,2.29,4.06,7,2.9,10.21-.17.48-.45.9-.62,1.37a4.94,4.94,0,0,0,.19,3.32C25.82,60.68,26.75,61.88,26.59,63.13Z"/><path class="cls-1" d="M46.13,48c0,.87,1.22.48,1.71.48,1.22,0,3.37.09,2.69-1.2C49.55,45.82,46.13,46.88,46.13,48Z"/><path class="cls-3" d="M16.76,63.37v0l.09.15h0Z"/><path class="cls-1" d="M26,56.2c.18-.47.46-.89.63-1.37,1.15-3.21-.59-7.92-2.9-10.21-1.51-1.49-4.14-2.48-6.16-1.44a5.62,5.62,0,0,0-2,2.19,11.15,11.15,0,0,0-1.61,3.85,10.43,10.43,0,0,0,.91,6A31.43,31.43,0,0,0,18.34,61c1.27,1.75,2.27,3.63,3.39,5.48a2.5,2.5,0,0,0,.92,1,2.06,2.06,0,0,0,1.74-.17,5.53,5.53,0,0,0,3-4.15c.17-1.25-.77-2.45-1.18-3.61A4.94,4.94,0,0,1,26,56.2Zm-.75-2.43a3.2,3.2,0,0,1-.53.51,4.7,4.7,0,0,0-1.68,3.65c0,.2.19.85-.18.86S22.1,58.13,22,58a9.92,9.92,0,0,1-1.69-2.69,1.85,1.85,0,0,1-.1-.87,2,2,0,0,1,1.13-1.28c.44-.22.9-.38,1.33-.6s.72-.22.88-.57a.45.45,0,0,0,0-.42c-.13-.19-.38-.21-.58-.27-1.51-.5-1.5-3.15-3.46-2.82a2.74,2.74,0,0,0-1.52.91c-.21.22-.39.46-.61.66-.49.43-1.39.59-1.63-.2a1.74,1.74,0,0,1,.09-1,4.87,4.87,0,0,1,1.41-2.21,3.8,3.8,0,0,1,2.41-.46,3.93,3.93,0,0,1,2.52.75c.88.76,1.19,2.08,1.78,3.06s.95,1.72,1.41,2.59A1.22,1.22,0,0,1,25.26,53.77Z"/><path class="cls-3" d="M11.48,53.46l.08.17,0,0-.09-.18A.11.11,0,0,0,11.48,53.46Z"/><path class="cls-1" d="M71.69,67a1.74,1.74,0,0,0,1.28.26c1.09-.25,1.62-2,1.91-3A8.5,8.5,0,0,0,75,59.81a4.37,4.37,0,0,0-.56-1.33,2.5,2.5,0,0,0-1.57-.95,7.72,7.72,0,0,0-1.72-.17h-.83c-.12,0-.67.09-.75,0C71,60.83,70.5,66.27,71.69,67Z"/><line class="cls-2" x1="48.87" y1="43.23" x2="47.06" y2="43.23"/><path class="cls-4" d="M308.6,10.76h-.7c-23,0-219.15,0-235.26,0-.26,0-.7,0-.82-.26-1-2.06-2-3.25-4.54-3.87-.2,0-.49-.1-.7-.13a8.51,8.51,0,0,1-1.83-.39,4.06,4.06,0,0,1-1.27-.58l-1.07-1C61.18,3.15,60.26,2,57.71,1.49A18.9,18.9,0,0,0,52.84,1a22.67,22.67,0,0,0-5.46.42A5.18,5.18,0,0,0,43.87,4a6,6,0,0,1-.77,1.14,2.37,2.37,0,0,1-1.22.52,4.76,4.76,0,0,0-3.46.93c-.58.39-1.28.93-1.88,1.36a11.08,11.08,0,0,1-3.7,1.52c-1.18.33-1.9.67-3.1.93a30.68,30.68,0,0,1-6.08.27c-.91,0-1.83,0-2.72,0l-1.24,0-14.78.09A3.84,3.84,0,0,0,1,14.52v92.07a3.82,3.82,0,0,0,3.89,3.75H308.6a3.83,3.83,0,0,0,3.9-3.76V14.52A3.84,3.84,0,0,0,308.6,10.76ZM86.41,43.9a10.12,10.12,0,0,1-3,5.63,10.68,10.68,0,0,1-1.94,4.08,27.43,27.43,0,0,0-3.09,7.68c-.21.74-.65,1.36-.82,2.11s-.38,1.39-.56,2.09a25.66,25.66,0,0,1-1.26,4.37c-.41.81-1.22,1.57-1.17,2.53s.31,2,.33,3.07a6,6,0,0,1-.26,2.35,6.21,6.21,0,0,0-.54,1.89c-.07,1.46.75,2.51.58,4s-1.26,2.73-1.41,4.21C73,90.72,72.73,93.64,70,95.3a1.92,1.92,0,0,0-.5,1.49c.24.8,1.47,1.14,2.15,1.38a6.63,6.63,0,0,1,2.61,1.53c1.53,1.57,2.14,3.71,3.38,5.48A9.38,9.38,0,0,0,81,108.34,21.35,21.35,0,0,0,84.56,110l-79.78.27a3.73,3.73,0,0,1-3.64-3.22L1,104.62c1.76-.84,5.59-1.52,7.38-2.3,2.79-1.22,5.37-1.89,7.66-4.07s3.05-4.68,4.43-7.3c.94-1.78,1.78-3.78,3.25-5.2A6,6,0,0,1,28,83.94c.66,0-.4,2.84-.48,3.44a18.65,18.65,0,0,0-.08,4.48c.4,3.45,2.76,4.83,5.24,7.06a17.47,17.47,0,0,1,1.84,1.81c1.24,1.49,2,3.41,3.69,4.47a6.37,6.37,0,0,0,5.35.29,8.66,8.66,0,0,1,5.49-.83,5.53,5.53,0,0,1,2.4,1.53.86.86,0,0,0,.91.15,7.73,7.73,0,0,1,2.07-.5,20.6,20.6,0,0,1,5.32.09c.7.12,1.4.29,2.1.43l3.54.69a5.87,5.87,0,0,0,1.26.15,1.29,1.29,0,0,0,1-.35,2.49,2.49,0,0,0,.31-.75,2.79,2.79,0,0,0-.21-1.68,4.48,4.48,0,0,0-6.33-2.08,24.61,24.61,0,0,0-3.32,2.55,1.35,1.35,0,0,1-.85.38,1.15,1.15,0,0,1-.89-.79,4.35,4.35,0,0,0-.56-1.12,2.5,2.5,0,0,0-2-.52,44.7,44.7,0,0,1-7.93-.09,4.33,4.33,0,0,1-1.42-.38,4.9,4.9,0,0,1-1.11-.92l-2.65-2.72a22.34,22.34,0,0,0-4.08-3.57c-.65-.41-1.35-.75-2-1.22a3.28,3.28,0,0,1-1.31-1.86,3.15,3.15,0,0,0-.24-1c-.37-.65-1.3-.65-1.89-1a4.38,4.38,0,0,1-1.39-1.32,8.21,8.21,0,0,1-1.08-4.21c0-.11,0-.6-.05-.65A10.91,10.91,0,0,0,28,80.41a1.56,1.56,0,0,0-1-.85c-4.69-1.3-1.13-7.48-5.74-8.21-1.45-.23-2.56-2.17-3.05-3.35-.34-.67-1.86-1.65-2.7-3.16a24.67,24.67,0,0,1-1.69-5.11l-2.33-2.58C10,54.82,7.29,48.44,9.18,46c-1.4-4.48,1.73-8.62,4.23-11.56,1.63-1.91,2.86-2.5,2.86-5.12-.28-3.71,2.85-6.13,4.82-8.91a22.76,22.76,0,0,0,1.65-3.49c.83-1.57,1.58-3.46,3-4.56A16.27,16.27,0,0,1,31,10a21.55,21.55,0,0,0,5.5-2c.39-.25.76-.54,1.13-.81a12.4,12.4,0,0,1,1.57-1.06,4.45,4.45,0,0,1,1.5-.42,2.44,2.44,0,0,1,.38,0,2.72,2.72,0,0,0,1.76-.36,2.85,2.85,0,0,0,.91-1.16L43.87,4A4.91,4.91,0,0,1,46.4,1.84,14.65,14.65,0,0,1,51.63,1a24.91,24.91,0,0,1,5.52.33,7.56,7.56,0,0,1,4.5,2.31l.2.25A7.43,7.43,0,0,0,63.72,5.7a6.74,6.74,0,0,0,2.56.76l.58.09a7,7,0,0,1,3.33,1.59,9,9,0,0,1,2,3.25,6.26,6.26,0,0,0,2.31,2.53c1.55,1.1,3,1.92,4.16,3.53a5.68,5.68,0,0,1,1,2.16c.2,1.06-.11,2.15.1,3.2.38,1.91,2.31,3,2.43,5.08a2.46,2.46,0,0,0,.09.67,1.8,1.8,0,0,0,.49.64,11.68,11.68,0,0,1,2.84,5.15A21.36,21.36,0,0,1,86.41,43.9Z"/><line class="cls-2" x1="48.06" y1="42.84" x2="46.24" y2="42.84"/><g id="Text"><g id="SAVINGS_BANK" data-name="SAVINGS BANK"><path class="cls-1" d="M106.45,94.53a9.63,9.63,0,0,0,4.87,1.37c2.78,0,4.41-1.46,4.41-3.59,0-2-1.13-3.09-4-4.19-3.44-1.22-5.56-3-5.56-6,0-3.28,2.71-5.71,6.81-5.71a9.55,9.55,0,0,1,4.65,1l-.75,2.22a8.29,8.29,0,0,0-4-1c-2.87,0-4,1.71-4,3.15,0,2,1.28,2.94,4.18,4.06,3.57,1.38,5.38,3.1,5.38,6.19,0,3.25-2.41,6.06-7.38,6.06a10.85,10.85,0,0,1-5.37-1.34Z"/><path class="cls-1" d="M125.64,91.22l-2.19,6.62h-2.81l7.15-21.06h3.28l7.19,21.06h-2.91l-2.25-6.62Zm6.9-2.13L130.48,83c-.47-1.37-.78-2.63-1.09-3.84h-.07c-.31,1.25-.65,2.53-1.06,3.81l-2.06,6.09Z"/><path class="cls-1" d="M146,97.84l-6.87-21.06H142l3.28,10.37c.91,2.85,1.69,5.41,2.25,7.88h.07c.59-2.44,1.47-5.09,2.4-7.84l3.57-10.41h2.9L149,97.84Z"/><path class="cls-1" d="M161.51,76.78V97.84H158.8V76.78Z"/><path class="cls-1" d="M166.26,97.84V76.78h3L176,87.44a57.46,57.46,0,0,1,3.78,6.84l.07,0c-.25-2.81-.32-5.38-.32-8.66V76.78h2.57V97.84h-2.75l-6.69-10.69a66,66,0,0,1-3.94-7l-.09,0c.15,2.66.22,5.19.22,8.69v9Z"/><path class="cls-1" d="M202.86,96.9a19.52,19.52,0,0,1-6.47,1.16,9.89,9.89,0,0,1-10.81-10.62c0-6.29,4.34-10.88,11.4-10.88a13,13,0,0,1,5.26,1l-.66,2.22a10.93,10.93,0,0,0-4.66-.91c-5.12,0-8.47,3.19-8.47,8.47s3.22,8.5,8.13,8.5a8.88,8.88,0,0,0,3.62-.56V89h-4.28V86.78h6.94Z"/><path class="cls-1" d="M206.64,94.53a9.64,9.64,0,0,0,4.88,1.37c2.78,0,4.4-1.46,4.4-3.59,0-2-1.12-3.09-4-4.19-3.44-1.22-5.57-3-5.57-6,0-3.28,2.72-5.71,6.82-5.71a9.59,9.59,0,0,1,4.65,1l-.75,2.22a8.33,8.33,0,0,0-4-1c-2.87,0-4,1.71-4,3.15,0,2,1.29,2.94,4.19,4.06,3.56,1.38,5.38,3.1,5.38,6.19,0,3.25-2.41,6.06-7.38,6.06A10.85,10.85,0,0,1,206,96.81Z"/><path class="cls-1" d="M229.05,77.06a26.32,26.32,0,0,1,5-.44c2.72,0,4.47.47,5.78,1.54a4.41,4.41,0,0,1,1.75,3.71A5,5,0,0,1,238,86.5v.06a5.43,5.43,0,0,1,4.34,5.28,5.69,5.69,0,0,1-1.78,4.22c-1.47,1.34-3.84,2-7.28,2a32.81,32.81,0,0,1-4.22-.25Zm2.72,8.63h2.47c2.87,0,4.56-1.5,4.56-3.54,0-2.46-1.87-3.43-4.62-3.43a11.23,11.23,0,0,0-2.41.19Zm0,10.09a15.09,15.09,0,0,0,2.28.12c2.81,0,5.41-1,5.41-4.09,0-2.87-2.47-4.06-5.44-4.06h-2.25Z"/><path class="cls-1" d="M249.4,91.22l-2.19,6.62H244.4l7.15-21.06h3.28L262,97.84h-2.91l-2.25-6.62Zm6.9-2.13L254.24,83c-.47-1.37-.78-2.63-1.09-3.84h-.07c-.31,1.25-.65,2.53-1.06,3.81L250,89.09Z"/><path class="cls-1" d="M265.12,97.84V76.78h3l6.75,10.66a58.91,58.91,0,0,1,3.78,6.84l.06,0c-.25-2.81-.31-5.38-.31-8.66V76.78h2.56V97.84h-2.75l-6.69-10.69a65.83,65.83,0,0,1-3.93-7l-.1,0c.16,2.66.22,5.19.22,8.69v9Z"/><path class="cls-1" d="M285.68,76.78h2.72V86.94h.09c.57-.82,1.13-1.57,1.66-2.25l6.44-7.91H300l-7.62,8.94,8.22,12.12h-3.22L290.4,87.5l-2,2.31v8h-2.72Z"/></g><g id="Lincoln"><path class="cls-1" d="M105.51,27.16h5.8v40h19.18v4.86h-25Z"/><path class="cls-1" d="M143.62,30.76a3.63,3.63,0,0,1-7.26,0A3.57,3.57,0,0,1,140,27.1,3.48,3.48,0,0,1,143.62,30.76Zm-6.53,41.3V39.82H143V72.06Z"/><path class="cls-1" d="M153,48.55c0-3.33-.07-6.07-.27-8.73h5.2l.33,5.33h.14a11.82,11.82,0,0,1,10.65-6.06c4.47,0,11.39,2.66,11.39,13.72V72.06h-5.86V53.48c0-5.2-1.93-9.53-7.46-9.53a8.6,8.6,0,0,0-8.26,8.73V72.06H153Z"/><path class="cls-1" d="M213.3,70.86A21.56,21.56,0,0,1,204,72.73c-9.73,0-16.06-6.6-16.06-16.46s6.8-17.12,17.32-17.12a19.57,19.57,0,0,1,8.13,1.67l-1.33,4.53a13.61,13.61,0,0,0-6.8-1.53c-7.39,0-11.39,5.46-11.39,12.19,0,7.46,4.8,12.05,11.19,12.05a16.59,16.59,0,0,0,7.2-1.6Z"/><path class="cls-1" d="M249.67,55.67c0,11.93-8.26,17.12-16,17.12-8.73,0-15.46-6.39-15.46-16.58,0-10.79,7.06-17.12,16-17.12C243.41,39.09,249.67,45.82,249.67,55.67ZM224.09,56c0,7.06,4.06,12.39,9.79,12.39s9.8-5.27,9.8-12.53c0-5.46-2.74-12.39-9.66-12.39S224.09,49.88,224.09,56Z"/><path class="cls-1" d="M257.4,24.76h5.86v47.3H257.4Z"/><path class="cls-1" d="M273.46,48.55c0-3.33-.07-6.07-.27-8.73h5.2l.33,5.33h.13a11.85,11.85,0,0,1,10.66-6.06c4.46,0,11.39,2.66,11.39,13.72V72.06H295V53.48c0-5.2-1.93-9.53-7.46-9.53a8.6,8.6,0,0,0-8.26,8.73V72.06h-5.86Z"/></g></g></g></g></svg>